<?xml version="1.0" encoding="utf-8"?><svg height="283" viewBox="0 0 340 283" width="340" xmlns="http://www.w3.org/2000/svg"><g fill="#eff3f1" fill-rule="evenodd" transform="matrix(.9961947 -.08715574 .08715574 .9961947 -20 15.023626)"><path d="m303.301755 235.372811v-218.5570274c0-3.0962617-2.516969-5.6067206-5.619299-5.6067206h-50.547367c-3.103209 0-5.6193 2.5104589-5.6193 5.6067206v39.2251534h-33.698245v-39.2251534c0-3.0962617-2.516091-5.6067206-5.619299-5.6067206h-39.313156c-3.103209 0-5.6193 2.5104589-5.6193 5.6067206v28.0204685h-33.698245c-3.10233 0-5.619299 2.5069563-5.619299 5.6023424v16.8114055h-33.698245v-61.64327938c0-3.09538613-2.5160911-5.60672062-5.6149115-5.60672062h-44.9368437c-3.0988203 0-5.6149115 2.51133449-5.6149115 5.60672062v229.76609038h-28.0833333v33.627189h337v-33.627189zm-50.551755-196.1432795h39.317544v-16.8114054h-39.317544zm0 22.4181261h39.317544v-11.2090631h-39.317544zm0 123.2909374h39.317544v-112.0818744h-39.317544zm0 22.413747h39.317544v-11.209063h-39.317544zm0 28.020469h39.317544v-16.811406h-39.317544zm-44.932456 0h33.698245v-168.122811h-33.698245zm-39.317544-201.7456219h28.083333v-11.209063h-28.083333zm0 16.8114054v-5.6023424h28.083333v112.0818739h-28.083333zm0 162.5204685h28.083333v-44.836252h-28.083333zm0 22.413748h28.083333v-11.209063h-28.083333zm-39.317544 0h28.083333v-179.331874h-28.083333zm-44.932456-145.7046849h33.698245v-11.2090631h-33.698245zm0 123.2909369h33.698245v-112.081874h-33.698245zm0 22.413748h33.698245v-11.209063h-33.698245zm-44.9324557-207.3523425h33.6982448v-16.8114055h-33.6982448zm0 22.418126h33.6982448v-11.209063h-33.6982448zm0 184.9342165h33.6982448v-173.7251534h-33.6982448zm-28.0833334 22.418126h314.5315781v-11.209063h-314.5315781z"/><path d="m219 213h11v-123h-11z"/><path d="m95 191h11v-67h-11z"/></g></svg>