<?xml version="1.0" encoding="utf-8"?><svg height="138" viewBox="0 0 199 138" width="199" xmlns="http://www.w3.org/2000/svg"><path d="m196.057712 87.0751049c.266951.0135105.343154.0188182 0 0-.999368-.0564546-1.5721-.0883007-1.8507-.1037413.432461.0246084 1.393486.0776854 1.840993.1018112-5.352129-.2977133-14.843459-.4728671-26.645615.7879511v-7.5769721c9.655869-.8444055 17.093615-3.9093566 22.137051-9.1620419 6.920347-7.203986 6.601461-15.8178881 6.584474-16.1797762-.041742-.8762518-.4776-1.6849511-1.190603-2.2031749-.711061-.5162937-1.61918-.6861398-2.470512-.4598391-1.835168.4863776-4.595444-.1601958-7.204285-1.1517693 3.594619-3.284979 5.399695-8.3552727 5.674412-9.1750699.320341-.9597273.117458-2.014993-.540212-2.7860559-.656215-.771063-1.668688-1.145979-2.673395-.9896434-1.495898.234021-3.947481-.6822797-6.275781-1.9035315 1.594427-1.5363356 2.396737-3.3925804 2.652524-4.6818671.295588-1.4890489-.615929-2.9515594-2.0895-3.353014-7.257675-1.9715664-15.262329-14.4832447-17.734783-19.13519577-.502353-.94959441-1.495897-1.5455035-2.576321-1.5455035-1.08091 0-2.072513.59590909-2.574866 1.5455035-2.203076 4.15447547-8.988491 14.85285317-15.670037 18.30574827-3.771293-4.3141888-6.910639-9.4168112-8.302668-12.033021-.502354-.9495944-1.493956-1.5455035-2.574381-1.5455035-1.080909 0-2.074453.5959091-2.576807 1.5455035-2.466629 4.6538811-10.458178 17.1597692-17.7309 19.1332657-1.473085.3995245-2.385088 1.862035-2.091441 3.353014.256273 1.2873567 1.056156 3.1421539 2.648641 4.678007-2.326359 1.2159441-4.794929 2.1394825-6.273354 1.9093217-1.005192-.1544056-2.017666.2185804-2.675336.9896433-.656215.7729931-.861039 1.8282588-.538756 2.786056.275202.8197972 2.078336 5.8881608 5.672956 9.1731399-1.112944.427993-2.280734.802909-3.403386 1.0441678l-29.5524703-56.4526154c-.4907049-.93463637-1.4522147-1.53247553-2.5137098-1.5566014-1.0673195-.0303986-2.0516415.52401399-2.5860293 1.43404196l-11.4119219 19.44400704c-.8095903 1.38193-.3412122 3.1532517 1.0483902 3.9600209 1.387661.8048392 3.1718659.3392098 3.9814561-1.0422377l8.7521171-14.90882521 15.9219415 30.40969931-8.6700903-4.8044266c-1.3764975-.7633426-3.1131366-.2996433-3.9207853 1.0460979l-11.2944635 18.8389301-12.2098634-11.1225105 5.8146829-9.9027063c.8115318-1.3814475.3416976-3.1551818-1.0464487-3.960021-1.3896025-.8067692-3.1718659-.3411398-3.9833976 1.0403077l-6.9732512 11.8762028c-.0097073.0154406-.0189293.0303986-.0266951.0453567l-5.4239634 9.2377972-4.3003415-8.2124476c-.4892488-.9346364-1.4522146-1.5324755-2.5122537-1.5585315-1.0464488-.0284685-2.0511561.524014-2.5860292 1.4359721l-25.35065858 43.1833846c-2.35499512.0303986-4.378.1095315-6.01222682.2016923-1.54346342.0849231-2.7491122 1.3534615-2.7491122 2.8893147v14.9961604c0 .778301.31451707 1.522826.8741439 2.067588.54409512.531252 1.27602683.827517 2.03805122.827517h.05678781c16.80385117-.330042 59.64321217 1.858175 94.63129507 29.288329.009222.007238.0208708.013028.0300927.020748.2392854.182874.5062366.32763.7964854.431371.627578.22244 1.3235927.22244 1.9526269 0 .288307-.103741.555744-.248497.794544-.431371.009707-.00772.020871-.01351.032519-.020748 16.136474-12.651126 35.617117-21.368287 57.900749-25.908776 1.575498-.322322 2.589912-1.850937 2.267144-3.419119-.324224-1.566734-1.863319-2.574713-3.437361-2.254322-21.060024 4.291511-39.740785 12.192734-55.623412 23.511147v-11.508524c34.840046-24.041434 75.334119-25.3398885 90.666827-24.8289025v9.3014895h-.089308c-5.725861 0-13.631985.303503-22.702017 1.485189-1.594912.207482-2.719019 1.660825-2.510312 3.245895.208222 1.587 1.672085 2.69872 3.266512 2.49558 10.46012-1.363112 19.306883-1.517517 24.890047-1.407986.785322.016888 1.537639-.282755 2.095324-.827517.559141-.544762.874144-1.289287.874144-2.067588v-14.9961604c.001941-1.5358532-1.206134-2.8043916-2.747171-2.8893147zm-159.575673-35.934042 4.9104464 9.3786923-.3999415-.2224405c-1.3745561-.7614126-3.1131366-.2996434-3.9188439 1.0460979l-4.9691756 8.2857902-4.2188-3.8432518zm60.0091781 77.9318811c-14.6939659-10.468217-31.8259244-18.030231-51.0168049-22.504615-15.6792585-3.656518-29.6641049-4.533252-39.45684635-4.533252h-.19317561v-9.3014896c15.33076586-.5071259 55.82678046.7893986 90.66682686 24.8308326zm2.9121951-16.550832c-9.9310707-6.800119-20.9144146-12.288755-32.8267488-16.4393707l-5.5438488-10.5927063c-.7411536-1.419084-2.4986634-1.9715665-3.9266097-1.2328322-1.427461.7372867-1.9832049 2.4864126-1.2396244 3.9035664l2.8306536 5.4075735c-5.2006951-1.504007-10.5605902-2.7725455-16.0777439-3.7901749-10.378578-1.9131818-19.7179878-2.649986-27.1445707-2.8555384l9.4059049-16.021028 5.9268024 5.3998531c.5402122.4921679 1.2435073.7594826 1.9676732.7594826.1402707 0 .2805415-.0091679.4227537-.0299161.8668634-.1264196 1.6288878-.6354755 2.0783365-1.3833776l5.3501878-8.9231958 5.655483 3.132986 4.1411414 7.9084615c.7411537 1.4195664 2.5006049 1.9696364 3.9266098 1.2328322 1.427461-.7387343 1.9812634-2.4878602 1.2376829-3.9054965l-8.8977268-16.9971609 5.4569683-9.2923216 13.9139829 12.6771818c.542639.4921678 1.2459342.7614126 1.9681585.7614126.1402708 0 .282483-.0110979.4227537-.0318462.8663781-.1264196 1.6308293-.6335455 2.0797927-1.3814475l11.6774171-19.4782658 13.9256317 7.7188322 5.2045778 9.9403426s-.001941 0-.001941.0019301c-.711061.5162937-1.148861 1.3269231-1.188661 2.2017273-.016988.3633356-.335388 8.9753077 6.584473 16.1812238 1.945346 2.0241608 4.250834 3.7206923 6.897534 5.0963496l9.049646 17.2857063c-8.283739 3.5513289-16.058814 7.8013429-23.2766898 12.7452169zm28.6288198-15.0632309-6.290827-12.0161328c1.973983.4675594 4.072705.8144895 6.290827 1.0427202zm6.419934-2.1298321c-.197544.0656223-.398486.1297972-.595544.195902v-8.7326013c.199.00193.394602.0096503.595544.0115804zm22.703958-5.7245875c-.322283.0583847-.644565.1153217-.96879.1756364-5.458424 1.0046014-10.761532 2.2557692-15.908836 3.7395105v-6.9627273c6.720861-.5881888 12.369063-2.2504615 16.877626-4.9815105zm1.044508-16.2092098c-.598942.6238952-1.243508 1.2062938-1.935639 1.7525035-.015047.0135105-.030093.0246084-.043683.0361889-4.92161 3.8712377-12.187051 5.8297762-21.647803 5.8297762-10.767356 0-18.692409-2.5370769-23.553834-7.5412658-3.048583-3.1363636-4.263939-6.611937-4.74348-9.0114965.033975-.0038601.069892-.0096503.106295-.014958 5.875353-.4636993 12.069592-4.1337273 12.905878-4.6423007 1.111002-.676972 1.632285-2.0072727 1.279424-3.2536154-.354317-1.2473077-1.49978-2.1071538-2.803958-2.1071538-2.062805 0-4.004269-2.3295944-5.346791-4.6722168 4.546422-1.228972 8.953059-4.3542378 10.0296-5.1552168.940639-.6953077 1.367276-1.8847133 1.086735-3.0157343-.282483-1.1310209-1.219239-1.9845944-2.377808-2.1636084-.814929-.1283496-1.431344-.4091748-1.899722-.7445244 6.541276-3.5079021 12.172005-11.232042 15.317661-16.2135525 3.145171 4.9815105 8.776386 12.7056504 15.315234 16.2135525-.466436.3353496-1.082365.6161748-1.899721.7445244-1.156142.179014-2.092898 1.0325875-2.375381 2.1636084-.282483 1.131021.146095 2.3204266 1.084307 3.0157343 1.078969.800979 5.490944 3.9301049 10.041249 5.1571469-1.338639 2.3426223-3.276219 4.6683566-5.357954 4.6683566-1.302721 0-2.4477.8617762-2.802502 2.1090839-.354317 1.2463427.168907 2.5747133 1.27991 3.2536154.837741.5124336 7.1043 4.2254056 13.011688 4.6514685-.4776 2.3807413-1.675969 5.8225385-4.669705 8.9400839zm5.377368 15.1857903c-.199485.0284685-.398485.055007-.597485.084923v-8.1386223c.199.00193.396058.0057902.597485.0057902zm5.422022-27.3674266c-.041742-.8748042-.4776-1.6835035-1.190602-2.2017273-.711061-.5162937-1.619181-.6861398-2.470513-.4617692-1.833227.4883077-4.593502-.1582658-7.204285-1.1517692 3.596561-3.283049 5.399695-8.3533427 5.674412-9.1731399.322283-.9597273.117459-2.014993-.538271-2.786056-.658156-.7710629-1.670629-1.145979-2.675336-.9896433-1.495898.234021-3.949422-.6822797-6.279178-1.9035315 1.596368-1.5377832 2.398192-3.3945105 2.65398-4.6837972.296073-1.490979-.615929-2.9534895-2.089014-3.353014-1.704605-.4617692-3.447069-1.5097972-5.151674-2.8951049 5.913698-3.7887272 11.03091-10.8358951 13.954269-15.4294615 3.141773 4.9815105 8.78221 12.7210909 15.330766 16.2362308-.464496.3334195-1.082366.6142447-1.897781.7406643-1.158568.1809441-2.094839 1.0325874-2.377322 2.1636084s.14561 2.3204266 1.084307 3.0176643c1.078969.799049 5.483179 3.9262448 10.027659 5.1552168-1.343978 2.3445525-3.2835 4.6722168-5.346305 4.6722168-1.302722 0-2.4477.8612937-2.802502 2.1071538-.354317 1.2477903.168907 2.5766434 1.277968 3.2555455.839683.5124336 7.106241 4.2273357 13.013629 4.6533986-.475658 2.3788112-1.674027 5.8206084-4.669705 8.9381538-4.713387 4.9096154-12.354017 7.4597203-22.702017 7.6049581 4.637671-6.5062657 4.391105-13.1954056 4.377515-13.5157972z" fill="#fff" fill-rule="evenodd" transform=""/></svg>