<?xml version="1.0" encoding="utf-8"?><svg height="166" viewBox="0 0 154 166" width="154" xmlns="http://www.w3.org/2000/svg"><path d="m352.94755 1482.46081c-1.097751-6.0716-3.849924-11.71904-7.961337-16.33165-.007543-.00963-.015589-.01774-.023634-.02737-2.105491-2.39549-5.594359-5.68949-10.257413-7.77586l-.106104-.04764c-4.500127-2.17556-9.330635-3.27829-14.355249-3.27829-7.428805 0-14.45733 2.41729-20.324743 6.98987-.004023.00608-.031178.02584-.039223.03192-5.042214 3.96902-8.370166 9.63825-8.782514 10.3609-.0176.03193-.037212.06537-.052801.0973-2.646068 4.88728-4.044532 10.4283-4.044532 16.02455 0 1.16202.058835 2.33773.178517 3.49367.112138 1.08296.754295 2.03518 1.709233 2.53993.604945.31875 1.237548.58379 1.887247.7936 2.591257 7.98972 8.246461 14.37755 15.437914 17.97054-3.082051 1.58771-5.849812 3.68624-8.246461 6.25151-1.217935 1.30442-1.155077 3.35734.139797 4.58474 1.296382 1.22739 3.331471 1.16405 4.549407-.14038 1.151055-1.23347 2.409723-2.3281 3.769466-3.28031 1.948597 5.56483 6.969187 9.63875 12.681215 9.63875h.479229c5.722086 0 10.739157-4.36734 12.571592-10.27627 6.796705 4.29183 11.143961 11.94303 11.143961 20.12431v33.69053l-29.272196 19.14017c-1.490991.97603-1.915407 2.98335-.946892 4.48592.615002.95779 1.647884 1.47875 2.700881 1.47875.600922 0 1.207878-.16825 1.749965-.52299l30.737541-20.10049c.915714-.59748 1.467356-1.62116 1.467356-2.71983v-35.45206c0-11.48542-6.362231-21.78094-16.417493-26.91806 9.521221-4.78846 16.256576-14.45661 16.914825-25.71448.909177-.82959 1.699176-1.80562 2.329767-2.90227.384691-.66691.520464-1.44885.382679-2.20901zm-33.592799 40.53919h-.466342c-3.732683 0-6.884998-3.59199-6.884998-7.84328 0-.05272-.001462-.10593-.003411-.15672 2.417473.63075 4.947024.96354 7.539436.96354 2.217682 0 4.380299-.24572 6.460564-.70863-.243648 4.18502-3.245388 7.74509-6.645249 7.74509zm-.108928-13c-9.777198 0-18.44783-5.82234-22.245823-14.55078 4.50277-1.27225 7.946601-5.0905 8.672659-9.79304 1.935983.24716 3.895273.37175 5.86267.37175 6.596328 0 12.949454-1.38114 18.639857-4.02793 1.466301 5.03478 6.125126 8.72439 11.629581 8.72439.401789 0 .799524-.02178 1.195233-.06128-2.288119 11.01362-12.098756 19.33689-23.754177 19.33689zm22.567448-26.19416c-3.083129 0-5.590029-2.528-5.590029-5.63505v-1.80977c0-1.18248-.63768-2.2715-1.664718-2.84496s-2.280236-.5379-3.27403.09092c-5.672132 3.59162-12.436782 5.49029-19.563086 5.49029-2.786451 0-5.55477-.29765-8.228393-.88076-.952491-.20826-1.946285.02946-2.70586.6466-.759072.61714-1.199806 1.54768-1.199806 2.53003v1.97181c0 3.10756-2.5069 5.63505-5.590029 5.63505-.210545 0-.419076-.01168-.625592-.03352-.047347-.00813-.096709-.01423-.143553-.01778-.073036-.01016-.143554-.02184-.214575-.03607-.010074-.27784-.0136-.55517-.0136-.83301 0-4.50997 1.121229-8.97625 3.246327-12.91479.007555-.01575.017629-.032.023674-.04369.027199-.04977 2.939575-5.14082 7.147963-8.45612.010074-.00813.019644-.01626.021659-.01829 4.735759-3.69422 10.412423-5.64673 16.413469-5.64673 4.061308 0 7.96093.89092 11.591074 2.64483.062962.032.157153.07365.277537.12901 3.584811 1.60508 6.337515 4.20419 8.027418 6.11911.017629.02184.037273.04368.054903.06553 3.043841 3.40266 5.168938 7.50374 6.195976 11.92635-1.054741 1.20431-2.579432 1.92101-4.186729 1.92101zm-49.75409 82.43906c7.359249-4.31786 12.311769-12.30225 12.311769-21.4157 0-4.10177-1.002888-7.97478-2.775198-11.38676-.065472-.14423-.137034-.28036-.218239-.40891-4.217104-7.75564-12.456417-13.03353-21.907215-13.03353-9.452827 0-17.694678 5.27991-21.909244 13.0391-.079175.125-.150737.25911-.212149.39778-1.77637 3.414-2.779766 7.28853-2.779766 11.39232 0 9.11142 4.94846 17.0943 12.307709 21.41367-9.107705 4.69489-14.876848 14.01381-14.876848 24.32919v11.81389c0 1.10679.566916 2.13666 1.502809 2.73181l24.222586 15.37616c.533419.33806 1.137892.50608 1.744903.50608.602444 0 1.205395-.16599 1.734753-.50001l24.280445-15.29721c.947567-.59515 1.518543-1.63666 1.514482-2.75155l-.057351-11.89485c-.049738-10.33918-5.812791-19.62824-14.883446-24.31148zm-13.058929-40.2449c5.614616 0 10.64509 2.41176 13.999748 6.20194-4.347043 1.18198-9.113419 1.79806-13.999748 1.79806-4.886833 0-9.654721-.61608-14.000252-1.79806 3.355162-3.79018 8.385132-6.20194 14.000252-6.20194zm-18.000252 18.9221c0-2.07191.358654-4.06605 1.018311-5.9221 5.388989 1.68655 11.36723 2.57095 17.481689 2.57095 6.113948 0 12.0927-.8844 17.481179-2.57095.659657 1.85605 1.018821 3.85019 1.018821 5.9221 0 9.96872-8.298522 18.0779-18.5 18.0779s-18.5-8.10918-18.5-18.0779zm24 24.13152c-.414954 2.95086-3.164738 4.94638-5.653946 4.94638h-.404593c-2.634778 0-5.56277-2.09836-5.941461-5 1.958729.4572 4.006562.70092 6.115524.70092 2.023485 0 3.994647-.22471 5.884476-.6473zm-5.017764 44.94638-20.982236-13.34372v-10.0524c0-7.13524 3.608193-13.64893 9.451142-17.4888 2.030211 4.6262 6.814405 7.49774 11.354465 7.49774h.396399c4.900931 0 9.234925-3.18638 11.106779-7.61282 5.926188 3.81655 9.607976 10.38143 9.643505 17.61959l.04771 10.11578zm-23.30816-86.59466c.94896-1.51178.480325-3.49712-1.046549-4.4367-.990639-.60944-2.017365-1.16202-3.071539-1.65319 4.020499-2.03467 7.576429-4.95002 10.399927-8.5946 1.161421.39908 2.410266.61498 3.706889.61498 6.252358 0 11.337196-5.03456 11.337196-11.2246v-8.00327c0-10.17482-3.92545-19.81165-11.053067-27.1325-7.108302-7.30123-16.648218-11.54317-26.867706-11.94225h-.004066c-.887458-.03372-1.713413-.04328-2.52717-.02164-10.171709.24156-19.767536 4.31894-27.02019 11.47824-7.433602 7.33847-11.527801 17.14843-11.527801 27.61815v8.00528c0 6.18803 5.084838 11.2246 11.337196 11.2246 1.298148 0 2.54496-.21791 3.706889-.61699 3.111185 4.01598 7.109827 7.14371 11.638606 9.18642-10.036506 5.22681-16.245152 15.34526-16.245152 26.54873v26.36353c0 1.09106.558092 2.10763 1.483163 2.70097l29.510255 18.96064c.545894.35027 1.159388.51886 1.766783.51886 1.066373 0 2.108856-.51886 2.732008-1.4685.978948-1.49165.547926-3.48705-.958617-4.45431l-28.027093-18.00698v-24.61421c0-7.45271 3.504085-14.29597 9.375233-18.71103 2.013299 5.78542 7.183528 10.13405 12.901683 10.13405h.484391c6.210679 0 11.166414-5.5655 12.911849-11.78372.19213.11223.384768.22848.575374.34423 1.526874.93957 3.532549.47557 4.481508-1.03419zm-38.990905-45.19325c-2.071304 3.57881-3.166287 7.67508-3.166287 11.84671v8.10137c0 1.54367-.713966 2.9203-1.82497 3.80749-.09563.06366-.185752.1314-.273871.20321-.758527.52304-1.675769.82913-2.659601.82913-2.625054 0-4.758442-2.17214-4.758442-4.83983v-8.10137c0-18.09577 13.932863-32.61272 31.716439-33.05021.665401-.01579 1.347825-.01018 2.088828.01986 17.492683.70436 31.194733 15.21317 31.194733 33.03035v8.09933c0 2.66973-2.133889 4.84187-4.758442 4.84187-.985835 0-1.901074-.30609-2.661604-.82913-.086116-.07181-.176238-.13955-.271868-.20321-1.111004-.88719-1.82497-2.26382-1.82497-3.80953v-8.09933c0-11.50498-8.425407-21.44795-19.600537-23.1271-.878188-.13343-1.769896.11358-2.464336.67635-.69444.56328-1.128528 1.39292-1.197121 2.29386-.175737 2.27808-.582789 4.52407-1.210639 6.70437h-15.566074c-1.134035 0-2.18646.61064-2.761238 1.60581zm20.220263 51.78791h-.486059c-3.689561 0-7.311799-4.53958-7.311799-9.16443 0-.28421-.037742-.5648-.105576-.83557 2.478239.63973 5.060524.97303 7.698402.97303 2.49609 0 4.942706-.29868 7.301598-.87175-.222883 4.80777-3.815029 9.89872-7.096566 9.89872zm1.097825-16c-7.512676 0-14.445207-3.43884-19.001259-9.30962 1.459931-1.90648 2.329141-4.29134 2.329141-6.87769v-8.05062c0-2.38689.503598-4.73783 1.471514-6.89135h16.026505c1.349643 0 2.55576-.8444 3.023603-2.11808.806764-2.18895 1.414607-4.44928 1.817989-6.75264 6.452098 2.36107 11.002107 8.64545 11.002107 15.76207v8.05062c0 2.58635.869714 4.97121 2.329141 6.87769-4.554037 5.8728-11.488079 9.30962-18.998741 9.30962z" fill="#fff" fill-rule="evenodd" transform="translate(-199 -1455)"/></svg>