<?xml version="1.0" encoding="utf-8"?><svg width="38" height="6" xmlns="http://www.w3.org/2000/svg" xmlns:xlink="http://www.w3.org/1999/xlink"><defs><path id="a" d="M0 1.78v-1h1v1H0z"/><path id="c" d="M37.705.48V6H.373V.48z"/><path id="e" d="M.094 1h1V.608h-1z"/><path id="g" d="M1.167 1h-1V.209h1V1z"/><path id="i" d="M1.507 1h-1V.637h1V1z"/><path id="k" d="M.13 1h1V.427h-1z"/></defs><g fill="none" fill-rule="evenodd"><g transform="translate(0 2)"><mask id="b" fill="#fff"><use xlink:href="#a"/></mask><path d="M.09.828c-.138.08.075.306-.09.137C.019.823.046.715.09.828" fill="#F7AF2A" mask="url(#b)"/></g><g><mask id="d" fill="#fff"><use xlink:href="#c"/></mask><path d="M37.245 2.623c-.445.92-1.032.002-1.52.591-.057.039.014-.502-.115-.38-.47.717-1.218.301-1.796-.242l.035-.142c-.11-.1-.243.37-.359.305-.002-.093.036-.134.01-.262-.029.283-.21.133-.259.345-.047-.11-.043-.335-.103-.459l-.065.323c-.182.77-.45-.048-.7.351l.016-.206c-.404.471-.912.389-1.364.566l.006-.451c-.02.341-.16.428-.28.495-.058-.348-.207.322-.35.131l.011-.077c-.104.366-.157-.21-.24.23l-.069-.274c-.043.493-.154-.254-.239-.002l.003.101c-.08.12-.125-.127-.2-.043l-.009-.056c-.177.131-.282-.142-.275.242-.065-.307.172-.142.07-.589-.583.402-1.188.332-1.778.345-.069-.154-.112-.2-.128-.345-.058.078-.22.072-.273.27.02-.008-.04-.197-.07-.215-.11-.144-.115.423-.234.252l.044-.369c-.098.301-.233.254-.35.353.017-.065.045-.104.04-.225-.127.342-.238-.068-.35.147l.04-.222c-.186-.267-.049.465-.21.307l.03-.247c-.145.404-.385.273-.532.412l.006-.091c-.16.052-.33-.072-.505.106-.065-.098.016-.542-.153-.458.011.445-.287.186-.18.689-.147-.071-.379-.236-.474-.084.063-.169-.077-.543.043-.582l-.095-.269c.012-.182.095.061.064-.169-.06.02-.236.197-.29.125-.11.274-.207.785-.387.843.083-.174-.055-.49.003-.567l-.243.856c-.06.022-.018-.351-.104-.234l-.057.288c-.023-.052-.25.112-.28-.326-.03-.17.096-.092.027-.249-.11.007-.114.157-.226.165l-.003-.059c-.074-.065-.214.189-.13.431.05.013-.024-.264.054-.137-.049.255-.178.328-.289.334l.045-.313c-.146.346-.303.457-.469.603.001.209.058-.38.084-.27-.219-.287-.438.415-.622-.007.03-.036.02.297.017.238-.104-.024-.103-.327-.169-.215-.009-.176-.083.059-.153.113-.033.129-.018-.086.041-.106-.095.152-.476.427-.704.172.007.117-.13.432-.182.419l.016-.274c-.049-.163-.17.025-.184-.209-.104.334.418-.288.274-.03-.042-.228-.199.439-.174.065-.102.012-.197.321-.3.066.03.044.078-.382-.005-.361-.146.051-.04.131-.157.224l-.073.113c0 .267-.132-.034-.072.263-.022-.219-.21.139-.202-.304l.014-.35c-.063.027-.098.369-.145.524l-.025-.159c0 .535-.15-.043-.22.371-.135-.184-.338-.013-.406-.345-.1.163-.19.356-.308.242.022-.05.053-.065.058-.181-.076-.156-.092-.015-.157.073.014-.08-.15-.312-.236-.499-.099.16-.06.448-.067.624-.1-.527-.282.342-.406-.134.034-.073.145-.261.058-.392-.1-.525-.182.391-.335.139l.044.437c-.072-.27-.217.257-.209-.189-.048.158-.179-.143-.156.283-.252-.358-.595.225-.757-.539-.035.072-.124 0-.103.219.062.237.08-.171.104-.009-.032.013-.037.13-.04.189-.078-.097-.138-.126-.07-.482-.175-.262-.166.727-.386.563.008-.177-.009-.244-.073-.215l-.115.304c-.142-.069-.086-.401-.093-.7-.074.052-.166.039-.197.262l-.096-.374c.071.27-.059.182-.094.254l.035-.072c-.015-.128-.1-.049-.145-.011.014.185.103.26.151.313-.036.132-.096.102-.144.257.013-.293-.125-.207-.185-.237-.069-.063-.074.263-.093.254-.004-.153-.113-.025-.062-.239.023-.049.055.147.092.014-.046-.114-.045-.378-.136-.184-.068.146.026.579-.11.395l.065-.296-.127-.151-.002.267-.014-.127c-.034.282-.19.089-.214.406-.064.029-.136-.183-.196-.213l.011-.024c-.076-.156-.172-.052-.23.129l.001-.058c-.04-.021-.135.022-.184.18-.103-.201-.046-1.009-.154-.672-.103.011-.155.492-.112.663-.187-.179-.393.259-.569-.153l-.062.239c-.273-.102-.572.323-.793-.2.078-.113.003-.267 0-.419-.064.24-.08-.248-.1.162.008.242.003.359.08.456-.16.131-.407.134-.499-.09.046.111.012.185-.023.258.008-.385-.113-.441-.2-.305l-.012.235-.062-.241c-.033.076-.033.493-.125.268l-.029-.25c-.092.193-.22.521-.324.322l-.086-.341c-.043.038-.114.245-.037.343-.176-.204-.287-.229-.345-.525-.292.725-.727.759-1.074.711l.01-.176c-.095-.163-.047.308-.113.187.03-.168-.074-.364-.003-.57-.134-.183-.169.307-.256.387-.01.231.07-.148.055.145-.014.082-.186-.178-.204.171-.035-.136-.01-.394.006-.535l-.08.171c-.103-.407.222-.732.113-1.234l-.074.056c-.074-.364.195-.414.006-.538-.08.174-.147.68-.073.834-.169.098-.073.833-.256.806-.05-.205.146-.051.11-.338-.09-.28-.173.159-.25.062.086.13.016.483-.039.549-.094-.165.06-.332-.073-.366-.02.201-.142.354-.035.493-.045.458-.139-.125-.208.23-.045-.321.13-.744-.015-.904.024.31-.177.423-.097.882-.057-.089-.065-.332-.025-.523-.082-.19-.194.567-.224-.047l-.026.317c-.026-.103-.063-.18-.106-.35-.07-.005-.227.431-.223-.047-.023.049-.187.03-.12.36.101.2.114-.243.173.203-.074-.363-.146.05-.205.172l-.01-.185c-.035.073-.116.033-.136.234.026-.106.012-.232-.017-.277l-.035.282c-.14.142-.036-.494-.174-.411l.104-.219c-.023.047-.07-.216-.137-.127-.024.256-.07.566-.092.765-.077.113-.036-.289-.112-.025l.1-.31c.014-.085-.07-.424-.175-.416-.066.09-.167.462-.062.601-.05.006-.126-.151-.086-.339-.117.091.018.277-.084.437-.042-.17-.173-.413-.253-.661l.104-.431-.07-.002c.09-.346-.048-.262.002-.626-.048-.056-.107.068-.153.163.144.58-.155.796-.11 1.326-.194.147-.128-1.288-.326-.456.033.138-.06.542.061.387-.12-.056-.079.533-.222.315.104-.219-.116-.535.035-.853-.009.176.086.132.108.083-.05-.203.008-.535-.115-.533-.075.051-.178.063-.162.339.005.303.115-.034.068.274-.149.107-.177-.355-.236.185.094-.044.12.268.118.477l-.109.128.02-.202c-.178-.143-.05.366-.223.314l-.08-.397c.038-.344.248.149.216-.41-.11-.021-.147.263-.253.121l.078-.113c-.04-.018-.082-.759-.239-.323-.08.169-.02.199-.022.408-.179.065-.232.279-.346.313.021-.408-.204-.037-.078-.456.058.238.317.212.38-.178-.068-.483.14.067.176-.423-.143-.011-.138-.486-.162-.798-.04-.022-.078.111-.1.159-.017.295.035.289.04.592-.16-.078-.315.088-.402.375-.053-.145-.038-.438.026-.467-.19.089-.394.051-.574-.036.118.478-.202.114-.12.512.096.107.181.447.127.662-.06-.03.002-.21-.023-.311-.077.262-.12-.418-.195-.005.173-.157.032-.584.062-.96-.124.213.005-.267-.119-.265-.124.21-.276.375-.415.458-.175-.353-.44-.001-.597.014-.082-.189-.027-.614-.116-.686-.103.009.078.457-.076.264l.016-.085c-.047.1-.283-.285-.328.325l.047-.46c-.028-.042-.054.064-.078.113-.002-.149-.035-.285.012-.384-.096-.315-.199.052-.302.067l.067.271c-.176.215-.294-.053-.465.043l.005-.266-.1.161c.023-.258-.069-.424-.123-.208l.263-.654c.073.156-.079.322-.034.584.04.229.197.155.222-.102-.06-.029-.063.03-.11.127-.02-.371.072-.357.117-.605-.03.016-.076-.097-.083.021.061-.182.124-.21.227-.221-.07.146.04.229.012.335.008-.325.107-.427.235-.338.091.377.24-.245.387-.142-.059.331-.135.597-.225.731.092.165.103-.01.197.156.044-.247.076-.625.197-.776l.007.243c.11-.125.108-.486.25-.42.238.118.485.115.668.144l.008.242c.1-.522.338-.196.474-.429.234.232.505-.237.626.181.412-.192.77-.378 1.196-.294l-.07.355c.076-.261.05.203.125.15-.088-.282.102-.369.154-.586.191.274.433-.029.6-.279l.008.244c.167-.459.372-.061.584.012.025.1.065.328.128.3.112-.394.172-.367.34-.615.122-.001.322.094.448.246.46-.558.934-.209 1.412-.547l.037.285c.461-.617 1.04-.067 1.434-.386l-.034.49c.126.15.283-.131.248-.478.127.149.31-.24.393.161.13.089.155-.228.26-.295.258.183.353.139.593.046l-.06-.03c-.026.108-.026.315.034.346.088-.137.333.128.237-.454.261.334.597-.281.852.17-.022-.159.04-.189.066-.298.225-.009.467.314.644.04.036.079-.054.273.038.288.054-.061-.002-.209.065-.299.362-.301.745.3 1.077.219.587-.315 1.206-.166 1.772-.223l-.004.117c.183-.45.452.453.593-.222.047.11.172.05.143.277.145-.318.428.293.64-.111l-.054.064c.224.256.414-.1.65.132-.022.051-.065.087-.07.204.094.225.205-.496.264.068.051-.005.032-.284.001-.267.513.215 1.054-.152 1.585-.287.386.334.038.951.333.526.026.109.014-.215.02-.098.113-.16.19.628.267.332-.038-.347.05-.195.05-.406.237.222.288.535.468.269l-.012.183c.21-.518.463-.244.637-.842 1.19-.12 2.326-.463 3.488-.545 1.148.102 2.27-.178 3.438.126.276.476.297.463.596.265l-.01.169c.012-.394.211-.04.236-.415.432.068.828-.044 1.272-.051-.07.043-.104.364-.02.337l.085-.251.015.11c.056-.059.117-.255.057-.381 1.113-.351 2.212.427 3.302.317.26.162.628.007.91-.077.834.517 1.586.932 2.433.556 0 0-.11 1.018-.46 1.256" fill="#F7AF2A" mask="url(#d)"/></g><path d="M0 2c.029.196.126.303.049.566L0 2zM3.041 4.014c.004-.059.037.08.046.111-.032.015-.062.181-.087.08.032-.015.027-.108.041-.19M3.233 4c-.009.175-.15.316-.233.338L3.233 4z" fill="#F7AF2A"/><g transform="translate(4 5)"><mask id="f" fill="#fff"><use xlink:href="#e"/></mask><path d="M.126.608C.18.755.166.836.094.832L.126.608z" fill="#F7AF2A" mask="url(#f)"/></g><g transform="translate(4 5)"><mask id="h" fill="#fff"><use xlink:href="#g"/></mask><path d="M.169.209C.219.204.246.307.27.407.269.256.15.502.169.209" fill="#F7AF2A" mask="url(#h)"/></g><g transform="translate(5 5)"><mask id="j" fill="#fff"><use xlink:href="#i"/></mask><path d="M.51.703C.542.688.612.543.642.737.609.601.487.96.51.703" fill="#F7AF2A" mask="url(#j)"/></g><g transform="translate(6 5)"><mask id="l" fill="#fff"><use xlink:href="#k"/></mask><path d="M.13.432c.022.01.03.043.053-.005C.22.506.182.634.152.65L.13.43z" fill="#F7AF2A" mask="url(#l)"/></g><path fill="#F7AF2A" d="M17.065 4.086L17 4.173 17.006 4zM22 4.026c.065-.11.049.164.061.19-.061.02.019-.216-.061-.19M25.02 3.354l-.02.005.002-.359z"/></g></svg>
