<?xml version="1.0" encoding="utf-8"?><svg height="93" viewBox="0 0 93 93" width="93" xmlns="http://www.w3.org/2000/svg"><g fill="#f9b02d" fill-rule="evenodd" transform="matrix(.99862953 .05233596 -.05233596 .99862953 4.416789 -.293447)"><path d="m35.9728962 55.6559073c-.8629585 0-1.5640389.7002984-1.5640389 1.5640389 0 .8629585.7010804 1.564039 1.5640389 1.564039s1.564039-.7010805 1.564039-1.564039c0-.8637405-.7010805-1.5640389-1.564039-1.5640389z"/><path d="m35.9728962 66.0828337c-.8629585 0-1.5640389.7002985-1.5640389 1.564039 0 .8629585.7010804 1.564039 1.5640389 1.564039s1.564039-.7010805 1.564039-1.564039c0-.8637405-.7010805-1.564039-1.564039-1.564039z"/><path d="m89.6715674 28.4748059v-8.6496095c0-3.8155589-3.1345125-6.9196875-6.984986-6.9196875h-49.2445879c-4.8141834 0-8.7312325 3.8795661-8.7312325 8.6496094v53.6275785h-5.2387396c-.9643646 0-1.7462465.7737076-1.7462465 1.7299219 0 6.6764173 5.4834323 12.1094532 12.2237256 12.1094532h40.5133554c5.1108269 0 8.7312325-4.3122628 8.7312325-9.0204614v-49.7968828h8.7312325c.9643646 0 1.7462465-.7745725 1.7462465-1.7299218zm-59.7220669 57.0874222c-4.2163122 0-7.7446033-2.9767631-8.5555165-6.9196875h40.3376394v1.7299219c0 1.9452971.6513499 3.742686 1.7495207 5.1897656zm45.7520949-65.7370317v60.1764141c0 2.8651831-2.0968055 5.5606176-5.2387395 5.5606176-2.8889466 0-5.2387395-2.3280424-5.2387395-5.1897656v-3.4598438c0-.9562143-.7818819-1.7299219-1.7462465-1.7299219h-35.2746159v-53.6275785c0-2.8619395 2.3500112-5.2074973 5.2387395-5.2074973h43.1931889c-.598526 1.0277898-.933587 2.2307342-.933587 3.4775754zm10.477479 6.9196876h-6.984986v-6.9196876c0-1.936215 1.5858101-3.4598437 3.492493-3.4598437 1.9252367 0 3.492493 1.5515236 3.492493 3.4598437z"/><path d="m46.9173361 45.3325519c.9747371.824593 1.9839043 1.6770221 3.0548748 2.6061078.3216333.2785759.7200394.4183991 1.1201564.4183991.3992615 0 .7987369-.1398232 1.1201564-.4183991 1.070115-.9290857 2.0784268-1.7815148 3.0542332-2.6054655 5.4457393-4.6011047 9.380187-7.9266705 9.380187-12.808064 0-4.5702708-3.3531982-8.1500022-7.6334445-8.1500022-2.8778054 0-4.7549976 1.5446933-5.9211321 3.1163662-1.1661346-1.5716729-3.0439684-3.1163662-5.9234846-3.1163662-4.2796047 0-7.6319475 3.5797314-7.6319475 8.1500022 0 4.8813935 3.935517 8.2061028 9.3804009 12.8074217zm-1.7484534-17.5314338c3.1233074 0 4.2310604 3.7311173 4.2761832 3.8908541.2072225.7344467.8763652 1.2395661 1.6398165 1.2438486h.0083403c.7628098 0 1.4343048-.5102584 1.6455905-1.2438486.0451228-.1597368 1.1528758-3.8908541 4.2746862-3.8908541 2.4007017 0 4.2118137 2.0307556 4.2118137 4.7240121 0 3.2895929-3.073266 5.8867075-8.165722 10.1901794-.6381341.5393793-1.2914518 1.0907496-1.9672238 1.6695278-.6774829-.5787782-1.3299452-1.1301485-1.9680793-1.6703843-5.0922421-4.3026154-8.165722-6.89973-8.165722-10.1893229 0-2.6932565 1.8102566-4.7240121 4.2103167-4.7240121z"/><path d="m5.2599527 85.1919548v2.9096351c0 .9639148.78504794 1.745432 1.75331757 1.745432.96826962 0 1.75331756-.7815172 1.75331756-1.745432v-2.9096351l.70110787-.9307516c2.9398752-3.9016949 4.5588448-8.7365415 4.5588448-13.613933v-49.2216178h1.7533176c.967393 0 1.7533176.7823899 1.7533176 1.7454319v16.0584105c0 .9639148.7850479 1.745432 1.7533175 1.745432.9682697 0 1.7533176-.7815172 1.7533176-1.745432v-16.0584105c0-2.8873808-2.3595271-5.2362959-5.2599527-5.2362959h-1.7533176v-3.4908639c0-1.7164142-.6197977-3.3383568-1.7533175-4.61404941v-4.11311043c0-2.88738084-2.35952715-5.23629591-5.25995273-5.23629591-2.90042559 0-5.2599527 2.34891507-5.2599527 5.23629591v4.11376497c-1.12146575 1.26652907-1.75331757 2.90636237-1.75331757 4.61339487v56.2033457c0 4.8782642 1.61896961 9.7122381 4.55884484 13.613933zm-1.75331757-16.2901165h7.01327027v-47.4761859h-7.01327027zm0-50.9670499v-3.4908639c0-1.9167025 1.56834257-3.4908639 3.50663514-3.4908639 1.90563703 0 3.50663513 1.5383801 3.50663513 3.4908639v3.4908639zm3.50663514-13.96345571c.96739297 0 1.75331756.78238988 1.75331756 1.74543197v1.96862908c-.56763656-.14639811-1.1565321-.22319712-1.75331756-.22319712-.59678547 0-1.18568101.07679901-1.75331757.22319712v-1.96862908c0-.96304209.7859246-1.74543197 1.75331757-1.74543197zm3.42532503 68.42136951c-.3098989 3.3254843-1.49557988 6.5562788-3.42532503 9.292898-1.92974515-2.7366192-3.11542615-5.9674137-3.42532503-9.292898z"/><path d="m66.9771694 65.4109743c.9682696 0 1.7533176.7806445 1.7533176 1.745432 0 .9639148-.785048 1.745432-1.7533176 1.745432h-23.1442302c-.9682697 0-1.7533176-.7815172-1.7533176-1.745432 0-.9647875.7850479-1.745432 1.7533176-1.745432zm.0570212-9.755067c.9849511 0 1.7835239.6995164 1.7835239 1.5640389 0 .8637406-.7985728 1.564039-1.7835239 1.564039h-23.542961c-.984951 0-1.7835238-.7002984-1.7835238-1.564039 0-.8645225.7985728-1.5640389 1.7835238-1.5640389z"/></g></svg>