<svg height="145" viewBox="0 0 274 145" width="274" xmlns="http://www.w3.org/2000/svg"><g fill="#075d7f" fill-rule="evenodd" transform="translate(0 -1)"><path d="m2.14 143.87h269v-140h-269z"/><g transform="translate(0 .243)"><path d="m266.623 144.2754c2.982-.08-1.607-.307 1.949-.136-.402.142-.981.249-1.949.136"/><path d="m271.5889 131.1494c-.916-9.603.009-22.253-.574-32.773-.039-1.236.501.315.381-2.463-.712-10.2-.287-26.269.26-38.69l.142.752c.103-2.365-.366-5.256-.301-7.763.094-.017.134.804.263.225-.284-.631-.132-4.534-.343-5.597.11-.989.336-.895.46-2.173l-.322-1.435c-.768-3.99.053-9.69-.344-15.136.075.263.134.804.206.372-.232-4.37-.328-9.288-.386-14.336l-.072-7.615c-.396-1.394-4.458-.343-6.424-.617.389-.114.748-.321.177-.45-.483.34-3.501.426-6.119.492-1.181-.349-4.491.319-7.564.127l.264-.078c-2.269.366-3.367-.211-5.208.228l-1.443-.275c-.994.493-3.285-.255-5.161-.004l.06.101c-1.767.119-2.687-.128-4.33-.045l-.156-.056c-3.842.129-6.076-.145-5.982.239-1.348-.308 3.726-.141 1.609-.588-12.638.396-25.673.318-38.397.326-1.443-.155-2.364-.202-2.688-.348-1.271.078-4.788.071-5.943.268.428-.008-.821-.197-1.495-.216-2.312-.145-2.528.422-5.069.25 1.011-.102 1.356-.226 1.016-.369-2.166.3-5.066.251-7.629.349.397-.065 1.015-.103.921-.224-2.805.34-5.114-.071-7.568.143l.916-.222c-3.955-.269-1.167.465-4.586.305.822-.07.532-.157.679-.247-3.189.403-8.35.27-11.531.407.19-.031.138-.092.138-.092-3.465.051-7.092-.075-10.904.101-1.388-.099.454-.541-3.216-.459.135.445-6.227.182-4.066.686-3.134-.072-8.096-.24-10.183-.089 1.409-.169-1.525-.544 1.08-.581l-1.97-.271c.294-.181 2.027.062 1.4-.167-1.305.018-5.108.194-6.275.122-2.42.273-4.642.782-8.558.839 1.842-.174-1.046-.492.203-.568l-5.463.854c-1.301.021-.28-.352-2.165-.236.095.119-.725.191-1.297.287-.492-.051-5.419.11-5.985-.328-.579-.171 2.122-.091.679-.249-2.404.005-2.512.155-4.919.162l-.047-.058c-1.587-.066-4.681.186-2.957.429 1.106.014-.419-.264 1.219-.136-1.12.254-3.915.326-6.323.33.822-.07.722-.188 1.05-.312-3.232.345-6.66.454-10.273.598-.056.209 1.348-.38 1.88-.269-4.628-.29-9.56.41-13.411-.013.631-.037.337.296.294.238-2.23-.026-2.127-.328-3.579-.217-.146-.177-1.828.057-3.323.111-.773.128-.39-.087.912-.105-2.084.15-10.425.422-15.239.164.095.117-2.956.43-4.063.417l.432-.274c-1.011-.164-3.708.023-3.894-.211-2.364.332 9.107-.284 5.909-.027-.83-.229-4.456.437-3.77.063-2.221.011-4.378.319-6.5.062.614.044 1.803-.381.009-.361-3.164.05-.898.132-3.466.223l-1.608.112c-.104.268-2.826-.036-1.651.263-.389-.22-4.594.136-4.27-.307l.441-.349c-1.366.025-2.239.368-3.31.521-.182-.032-.541-.102-.472-.158-.221.534-3.263-.045-4.888.368-.716-.046-1.53-.071-2.368-.086l-1.266-.018-.631-.008-.312-.003-.154-.002-.02-.001h-.009-.005-.002c.615-.616-1.381 1.378 1.379-1.38v.038l-.001.077c-.023 1.631-.064 3.073-.231 3.75.162 2.204.355 4.214.239 6.725-.05-.502-.065-1.184-.18-1.327-.157 1.577-.017 1.966.07 3.41-.079-.324-.312 3.155-.501 4.91.159 2.187.447 1.435.623 1.655-.527 2.001.34 6.185-.139 8.692-.072-.761-.258-3.199-.39-1.375-.526 2.001.389 4.037.136 7.261l.436-.791c-.27 1.439.255 4.75-.19 4.421.157 1.081-.146 3.808.281 3.45-.361 5.298.218 12.892-.548 16.146.072.761-.001 2.658.219 2.269.237-1.262-.17-1.763-.009-2.234.013.682.13.829.189.903-.097 1.646-.127 2.943-.483 1.387-.264 3.665.726 3.782.559 8.45-.177-.212-.243.142-.215 1.508l.302 2.589c-.071 3.017-.402 1.715-.701 1.789.051 1.612.038 3.583.26 4.318l-.375 1.958c.271-1.431.181 1.326.253 2.083l-.072-.757c-.128.294-.05 2.161-.012 3.108.185-.229.26-2.131.314-3.168.131.821.101 2.105.255 3.198-.292-.363-.209 2.628-.239 3.907-.063 1.47.263 1.66.253 2.088-.152.039-.025 2.398-.238 1.253-.05-.502.147-1.145.014-1.975-.114.968-.379.856-.186 2.869.146 1.513.579-.388.395 2.481-.074-.752-.191-.89-.296-1.478l-.153 2.693.268.116c-.068.364-.092.113-.127.277.281.804.087 4.11.403 4.72.029 1.357-.185 2.861-.216 4.157l-.023-.25c-.157 1.586-.054 3.691.127 5.022l-.059-.069c-.021.864.021 2.909.178 3.997-.201 2.183-1.009.731-.673 3.151.01 2.217.49 3.475.661 2.585-.18 3.985.256 8.514-.159 12.209.108.575.176.212.239 1.396l-.003 4.473.014 1.129.008.564.001.141.002.07v.018.009c-.74-.74 1.657 1.662-1.66-1.658h.004l.035-.001.281-.003 2.229-.027c2.941-.027 5.733-.001 8.063.261-1.694.113-.112.267-.078.42 1.4-.239 1.685.248 2.186-.162-.137-.242 0-.359-1.646-.456 3.492-.13 8.804-.13 10.74.095-.968-.111-.216-.185.545-.258-.251.386 2.325.443 4.274.307l.272-.234 1.271.241c.748-.075.826-.492 2.757-.267.104.092.216.184.571.251 2.014-.192 4.858-.518 7.045-.319l1.789.342c.933-.037 2.511-.243.864-.342 3.734.207 6.138.232 7.321.529 6.432-.722 15.767-.752 23.244-.7l-.224.176c2.009.164 1.046-.307 2.445-.185-.647.167 1.53.364-.047.569 2.874.185 3.704-.304 5.57-.384.287-.231-1.503.147-1.14-.146.32-.082 3.976.181 4.422-.168.721.137.159.394-.23.535l1.755-.17c2.148.408-4.892.729-2.637 1.232l1.617-.055c1.547.366-4.279.413-.216.538 1.763-.172 3.267-.679 1.698-.833 3.67-.097 1.699-.832 5.645-.803 1.076.205-3.16.049-2.399.336 1.859.281 3.726-.157 5.381-.058-1.837-.132-.285-.484.903-.549 2.005.165-1.305.331 1.538.367.467-.202 3.082-.353.822-.493 1.029-.457 2.957.126 4.504-.228.924.322-2.926.743.198.904-.497-.309 3.851-.421 2.2-.88 1.224.089 1.353.333.463.522 1.746.192 4.239-.564 4.814.05l.601-.317c.549.103 1.331.181 2.226.352 1.539.006 4.961-.429 4.823.049.493-.049 4.011-.028 2.654-.358-2.187-.202-2.516.241-3.734-.205 1.547.364 3.155-.049 4.417-.17l.207.185c.752-.073 2.485-.032 2.956-.232-.579.105-.277.232.32.276l.791-.281c3.056-.141.722.494 3.695.412l-2.26.218c.497-.047 1.508.217 2.934.129.554-.256 1.591-.565 2.067-.764 1.676-.112.752.289 2.402.026l-2.161.309c-.328.085 1.457.425 3.695.417 1.431-.088 3.653-.459 1.397-.6 1.124-.004 2.697.153 1.806.34 2.546-.089-.337-.276 1.859-.435.898.17 3.699.414 5.384.663l-2.29.43 1.522.003c-1.972.345 1.002.263-.113.626 1.042.056 2.303-.067 3.31-.162-3.047-.581 3.41-.794 2.525-1.324 4.174-.145 2.61 1.289 6.962.459-.712-.138 1.335-.541-1.292-.387 2.593.057 1.763-.533 4.824-.313-2.265.217 2.432.536-.839.853.216-.176-1.828-.134-2.329-.085 1.067.204-.221.535 2.432.535 1.621-.05 3.843-.061 3.519-.337-.065-.304-2.473.032-1.436-.275 3.229-.105 3.769.357 5.105-.183-2.04.043-2.55-.269-2.511-.478l2.368-.126-.458.201c3.803.146 1.124-.366 4.806-.311l1.728.398c-.876.343-5.358-.152-4.702.406 2.395.023 3.191-.261 5.447-.117-.502.048-1.189.063-1.686.111.859.02 1.711.76 5.125.327 1.764-.169.467-.2.511-.409 3.846-.063 4.996-.276 7.472-.309-.51.408 4.378.04 1.642.457-1.257-.239-6.819-.215-8.181.174 1.401.484-3.021-.068-3.842.422 3.082.011 2.93.487 3.427.799.856.022 1.686-.11 2.196-.158.363-.295-.756-.29-.822-.592 3.441.08 6.755-.085 8.653-.371 1.15.146.787.439-.574.467 4.092-.087 8.466-.047 12.356.042-2.516-.479 4.335-.112 2.619-.511-2.084-.108-3.873-.449-2.723-.663 1.301.031-.044.21.501.312 1.66-.262 2.577.419 4.205.007-3.738.154-.725.583-1.413.958 2.697-.211-.117.267 2.554.267 2.685-.208 5.986-.372 8.973-.453 3.752.355 9.504.006 12.853-.008 1.755.19.567.614 2.468.688 2.234-.009-1.655-.459 1.651-.264l-.32.084c1.003-.098 6.064.289 7.041-.321l-1.02.46c.618.042 1.188-.064 1.698-.113.026.15.744.286-.259.384 2.04.317 4.283-.05 6.5-.063l-1.426-.272c3.794-.213 6.336.056 10.009-.038l-.112.266 2.187-.16c-.536.258 1.469.424 2.623.209l-5.678.652c-1.579-.158 1.724-.322.734-.584-.843-.23-4.239-.157-4.788.1 1.301.029 1.361-.03 2.372-.126.428.37-1.547.356-2.523.604.682-.015 1.65.097 1.797-.02-1.339.18-2.688.208-4.919.217 1.509-.145-.821-.229-.25-.335-.177.326-2.308.427-5.065.335-1.967-.377-5.174.243-8.367.139 1.296-.33 2.951-.596 4.892-.729-2.005-.165-2.23.009-4.24-.157-.972.246-1.664.623-4.279.773l-.143-.243c-2.368.124-2.368.485-5.384.417-5.169-.12-10.49-.12-14.436-.15l-.146-.243c-2.196.521-7.313.192-10.269.423-5.026-.234-10.918.232-13.493-.187-8.873.187-16.631.37-25.82.281l1.547-.354c-1.646.26-1.071-.204-2.688-.151 1.858.282-2.238.367-3.375.584-4.093-.276-9.349.024-12.975.273l-.142-.244c-3.665.457-8.043.056-12.612-.019-.523-.101-1.348-.329-2.71-.302-2.476.393-3.772.365-7.407.612-2.654 0-6.963-.098-9.66-.251-9.983.553-20.179.199-30.556.532l-.748-.286c-10.061.612-22.434.056-31.022.37l.829-.488c-2.692-.152-6.137.127-5.449.474-2.701-.15-6.739.237-8.454-.165-2.757-.09-3.375.226-5.67.292-5.524-.185-7.573-.143-12.781-.052l1.292.031c.571-.108.623-.316-.673-.348-1.946.137-7.149-.13-5.213.453-2.779-.169-6.02-.1-9.243-.046l-.604.009-.038.001h-.019-.009l-.005.001c1.734 1.735-2.367-2.363-1.945-1.943l-.002-.076-.002-.151-.004-.301-.015-1.199-.004-2.355c.012-1.542.059-3.02.172-4.373-.159.458-.19-.907-.297-1.478-.008-4.879.318-10.009.047-13.899.079-.773.271 1.236.288-.752-.062-1.175-.209-.021-.298-1.474-.298-7.904.307-16.004.23-23.187-.308-12.775-.153-26.105-.204-38.344l.117.138c-.448-4.097.459-9.616-.215-12.888.111-.968.053-3.7.278-2.982-.316-3.263.298-9.136-.104-13.856-.01.432.013.683.063 1.184.259-4.767-.095-8.972.14-14.003.051.51.087 1.439.204 1.591.225-1.945-.495-4.608.07-5.671-.005-1.115-.284-.795-.267-.112l.056-4.163.008-1.05.002-.526v-.066c-1.499 1.498 2.042-2.051 1.681-1.684h.009.015.033.132l.264.001 2.116.001 8.565-.073 17.283-.266c8.212.338.501.952 6.979.53.532.109.385-.215.472-.098 2.507-.158 3.907.63 5.644.335-.717-.347 1.159-.194 1.21-.405 5.023.224 6.03.537 9.993.274l-.298.183c4.645-.516 10.031-.24 13.951-.835 25.62-.108 50.178-.438 75.158-.507 24.692.113 48.868-.154 73.943.163 5.874.479 6.315.466 12.768.272-.264.077-.666.096-.233.168.319-.394 4.542-.037 5.156-.412 9.27.073 17.81-.035 27.349-.038-1.508.042-2.265.364-.471.338l1.871-.251.307.11c1.227-.059 2.563-.253 1.296-.379l4.489-.052.56-.004.281-.002.139-.001c1.177 1.171-2.609-2.624 2.644 2.627v.018.035l.001.07.007 1.12.01 2.238-.003 8.935-.16 17.783c-.143 11.822-.316 23.581-.267 35.316-.164 5.57-.014 13.501.066 19.561-.524 17.944-.947 34.121-.581 52.356 0 0-1.017-2.382-1.251-9.911"/><path d="m263.0352 144.3154c-.639-.197-2.727-.305-1.063-.567.208.185 1.28.391 1.063.567"/><path d="m207.3086 142.2905c-.073.059-.795-.08-.973-.111.688-.016 1.331-.181 1.88-.079-.7.014-.592.108-.907.19"/><path d="m193.0596 142.1733c.216-.175 3.263-.314 5.061-.335z"/><path d="m179.7822 141.4512c-1.146-.147-.83-.229.713-.224.112.093-.398.14-.713.224"/><path d="m178.8398 141.8496c-1.102.005-1.65-.098-2.187-.199.04.151 2.554-.094 2.187.199"/><path d="m150.0176 141.3413c-.692.014-2.191.159-2.836-.035.722.136 3.371-.222 2.836.035"/><path d="m136.623 141.606c-.432-.012-.609-.043-1.11.005-.795-.08.043-.208.713-.224z"/><path d="m3.458 34.2808.087 1.448-.174-.212z"/><path d="m78.333 4.9365c1.443-.11 1.003.164 1.245.19-1.306.018.484-.216-1.245-.19"/><path d="m135.9443 4.062-.44.005.146-.359z"/></g></g></svg>