<svg height="149" viewBox="0 0 208 149" width="208" xmlns="http://www.w3.org/2000/svg" xmlns:xlink="http://www.w3.org/1999/xlink"><mask id="a" fill="#fff"><path d="m0 145.999863v-145.24246715h220.827314v145.24246715z" fill="none"/></mask><g fill="#f7af2a" fill-rule="evenodd" transform="matrix(.9998477 -.01745241 .01745241 .9998477 -15 3.628515)"><path d="m1.81444992 144h216.64532008v-140h-216.64532008z"/><path d="m215.049938 144.2754c2.404383-.08-1.296964-.307 1.572004-.136-.324241.142-.791245.249-1.572004.136"/><path d="m219.055281 131.1494c-.738818-9.603.007259-22.253-.462971-32.773-.031456-1.236.404091.315.307303-2.463-.574278-10.2-.231486-26.269.209708-38.69l.114533.752c.083076-2.365-.295205-5.256-.242778-7.763.075818-.017.108081.804.212128.225-.229066-.631-.106467-4.534-.276653-5.597.088722-.989.271007-.895.371022-2.173l-.259716-1.435c-.619445-3.99.042748-9.69-.27746-15.136.060493.263.108081.804.166154.372-.187124-4.37-.264555-9.288-.311336-14.336l-.058073-7.615c-.319401-1.394-3.595686-.343-5.181401-.617.313755-.114.602507-.321.142762-.45-.389573.34-2.822992.426-4.935398.492-.952558-.349-3.622302.319-6.10089.127l.212934-.078c-1.830106.366-2.715719-.211-4.200613.228l-1.163879-.275c-.80173.493-2.649581-.255-4.162705-.004l.048394.101c-1.425208.119-2.168058-.128-3.492445-.045l-.125825-.056c-3.098839.129-4.900715-.145-4.824898.239-1.086448-.308 3.005278-.141 1.297771-.588-10.193424.396-20.707055.318-30.969844.326-1.163879-.155-1.906729-.202-2.168058-.348-1.02515.078-3.861854.071-4.793442.268.345212-.008-.662193-.197-1.205821-.216-1.864788-.145-2.039007.422-4.089306.25.816248-.102 1.094514-.226.819474-.369-1.746222.3-4.085274.251-6.152511.349.320208-.065.818668-.103.742851-.224-2.262427.34-4.124796-.071-6.104924.143l.739624-.222c-3.189981-.269-.941266.465-3.698927.305.663-.07.429902-.157.547661-.247-2.57215.403-6.734854.27-9.300551.407.153248-.031.111306-.092.111306-.092-2.794762.051-5.719383-.075-8.794832.101-1.119518-.099.366183-.541-2.593927-.459.108081.445-5.022507.182-3.279511.686-2.527788-.072-6.5291785-.24-8.2132953-.089 1.1364562-.169-1.2300183-.544.8710949-.581l-1.5889416-.271c.2371314-.181 1.634916.062 1.1291971-.167-1.052573.018-4.1199562.194-5.0612227.122-1.9518978.273-3.7440949.782-6.9026204.839 1.4857007-.174-.8436715-.492.1637336-.568l-4.4062884.854c-1.0493467.021-.2258394-.352-1.7462226-.236.0766241.119-.5855693.191-1.0461204.287-.3968321-.051-4.3716059.11-4.8273175-.328-.4670037-.171 1.7115401-.091.5476605-.249-1.9389927.005-2.0261021.155-3.9675146.162l-.0387153-.058c-1.279219-.066-3.7747445.186-2.384219.429.8920657.014-.3379525-.264.9832081-.136-.9033577.254-3.157719.326-5.099938.33.663-.07.5823431-.188.8468978-.312-2.6068321.345-5.3717518.454-8.2858868.598-.0451679.209 1.0872554-.38 1.5171569-.269-3.7336095-.29-7.7116095.41-10.817708-.013.5089452-.037.2718138.296.2371314.238-1.7986497-.026-1.715573-.328-2.8867117-.217-.1177591-.177-1.4744088.057-2.6802299.111-.6234782.128-.3137555-.087.7355912-.105-1.6808905.15-8.4084854.422-12.2913102.164.0766241.117-2.384219.43-3.2770913.417l.348438-.274c-.8154416-.164-2.9907591.023-3.140781-.211-1.90673.332 7.3446204-.284 4.7660182-.027-.6694525-.229-3.594073.437-3.0407664.063-1.7913905.011-3.5311606.319-5.2427007.062.4952335.044 1.4542445-.381.0072591-.361-2.5519854.05-.7251059.132-2.7955694.223l-1.2969635.112c-.0838832.268-2.2793649-.036-1.3316459.263-.3137555-.22-3.7053796.136-3.4440511-.307l.355697-.349c-1.1017737.025-1.8059087.368-2.66974449.521-.14679562-.032-.43635401-.102-.38070073-.158-.17825182.534-2.63183576-.045-3.94251095.368-.57750365-.046-1.23405109-.071-1.9099562-.086l-1.02111679-.018-.50894525-.008-.25164964-.003-.12421168-.002-.01613138-.001h-.00725913-.00403285-.00161313c.49604014-.616-1.11387227 1.378 1.11225912-1.38v.038l-.00080657.077c-.01855109 1.631-.05162044 3.073-.18631752 3.75.13066424 2.204.28633212 4.214.19277008 6.725-.04032847-.502-.05242701-1.184-.14518249-1.327-.12663138 1.577-.01371168 1.966.05645986 3.41-.06371898-.324-.25164964 3.155-.40409124 4.91.12824452 2.187.36053649 1.435.5024927 1.655-.42506205 2.001.27423357 6.185-.11211314 8.692-.05807299-.761-.20809489-3.199-.31456204-1.375-.42425548 2.001.31375547 4.037.10969343 7.261l.35166423-.791c-.21777372 1.439.20567518 4.75-.15324818 4.421.12663139 1.081-.11775912 3.808.22664599 3.45-.29117153 5.298.17583212 12.892-.442 16.146.05807299.761-.00080657 2.658.17663869 2.269.19115693-1.262-.13711679-1.763-.00725913-2.234.0104854.682.10485402.829.15244161.903-.07823723 1.646-.10243431 2.943-.389573 1.387-.2129343 3.665.58556935 3.782.45087227 8.45-.14276278-.212-.19599635.142-.17341241 1.508l.24358394 2.589c-.05726642 3.017-.32424088 1.715-.56540511 1.789.04113504 1.612.03064964 3.583.20970803 4.318l-.3024635 1.958c.21858029-1.431.14598905 1.326.20406204 2.083l-.05807299-.757c-.10324088.294-.04032847 2.161-.00967883 3.108.14921532-.229.20970802-2.131.25326277-3.168.10566058.821.0814635 2.105.20567518 3.198-.23551825-.363-.16857299 2.628-.19277007 3.907-.05081387 1.47.21212774 1.66.20406204 2.088-.12259854.039-.02016423 2.398-.1919635 1.253-.04032847-.502.11856569-1.145.01129197-1.975-.09194891.968-.30568978.856-.1500219 2.869.11775913 1.513.46700365-.388.31859489 2.481-.05968613-.752-.15405474-.89-.23874452-1.478l-.12340511 2.693.21616058.116c-.05484671.364-.07420438.113-.10243431.277.22664599.804.07017154 4.11.32504745 4.72.02339051 1.357-.14921533 2.861-.17421898 4.157l-.01855109-.25c-.12663139 1.586-.04355475 3.691.1024343 5.022l-.04758759-.069c-.01693795.864.01693796 2.909.14356935 3.997-.16212044 2.183-.81382847.731-.54282117 3.151.00806569 2.217.39521898 3.475.53314233 2.585-.14518248 3.985.20648175 8.514-.12824452 12.209.08710949.575.1419562.212.19277007 1.396l-.00241971 4.473.01129197 1.129.00645256.564.00161314.141v.07l.00080657.018v.009c-.59686132-.74 1.3364854 1.662-1.33890511-1.658h.00322627l.02822993-.001.22664599-.003 1.79864963-.027c2.37131387-.027 4.62325548-.001 6.50256207.261-1.36632849.113-.0911424.267-.0629124.42 1.129197-.239 1.3590693.248 1.7631606-.162-.1105-.242 0-.359-1.3276132-.456 2.8165402-.13 7.1010365-.13 8.6625548.095-.7807592-.111-.174219-.185.4395802-.258-.2024489.386 1.8752738.443 3.448084.307l.2185803-.234 1.0259562.241c.6025073-.075.6654197-.492 2.2229051-.267.0838832.092.174219.184.4605511.251 1.6244306-.192 3.9183139-.518 5.682281-.319l1.4429526.342c.7525292-.037 2.0252956-.243.6968759-.342 3.0117299.207 4.9507226.232 5.9057007.529 5.1870475-.722 12.7163723-.752 18.7470913-.7l-.1814782.176c1.6212044.164.8444782-.307 1.9736752-.185-.5226569.167 1.2332446.364-.0387153.569 2.3180803.185 2.9875328-.304 4.4933978-.384.2306788-.231-1.2130803.147-.9202956-.146.2581022-.082 3.2069197.181 3.5658431-.168.582343.137.1290511.394-.1847044.535l1.4155292-.17c1.7325109.408-3.9457373.729-2.1269234 1.232l1.3042226-.055c1.2477628.366-3.4513102.413-.1742189.538 1.4219817-.172 2.635062-.679 1.3695547-.833 2.9601095-.097 1.3703613-.832 4.553084-.803.8678686.205-2.5487592.049-1.9349599.336 1.4994124.281 3.0052774-.157 4.3401496-.058-1.4816678-.132-.2298722-.484.7283322-.549 1.6171715.165-1.052573.331 1.2405036.367.3766679-.202 2.4858467-.353.663-.493.8299599-.457 2.384219.126 3.6327883-.228.7452701.322-2.3600219.743.1597008.904-.4000584-.309 3.1060985-.421 1.7744525-.88.9872409.089 1.0912883.333.3734416.522 1.4082701.192 3.4190475-.564 3.8828248.05l.4847482-.317c.4428066.103 1.0735438.181 1.7954234.352 1.2413102.006 4.0013905-.429 3.8900839.049.3976387-.049 3.2351496-.028 2.140635-.358-1.7639671-.202-2.0293284.241-3.0117299-.205 1.2477628.364 2.5447263-.049 3.5626168-.17l.1669599.185c.6065401-.073 2.004325-.032 2.384219-.232-.467004.105-.22342.232.258102.276l.637996-.281c2.464876-.141.582344.494 2.980274.412l-1.822847.218c.400865-.047 1.216307.217 2.366475.129.446839-.256 1.283252-.565 1.667179-.764 1.35181-.112.60654.289 1.937379.026l-1.742189.309c-.265362.085 1.174365.425 2.979467.417 1.1542-.088 2.946398-.459 1.126777-.6.906584-.004 2.174511.153 1.456664.34 2.053526-.089-.271814-.276 1.499413-.435.724299.17 2.9835.414 4.342569.663l-1.847044.43 1.226792.003c-1.589748.345.808989.263-.090336.626.840446.056 1.85753-.067 2.670552-.162-2.458424-.581 2.749594-.794 2.035781-1.324 3.36662-.145 2.105146 1.289 5.615335.459-.574277-.138 1.07677-.541-1.042087-.387 2.091434.057 1.421982-.533 3.89089-.313-1.827686.217 1.961577.536-.676711.853.174219-.176-1.474409-.134-1.8785-.085.860609.204-.178252.535 1.961576.535 1.307449-.05 3.099646-.061 2.838318-.337-.052427-.304-1.994646.032-1.158234-.275 2.604413-.105 3.040767.357 4.117537-.183-1.645402.043-2.056752-.269-2.025296-.478l1.909956-.126-.369409.201c3.067384.146.905778-.366 3.876373-.311l1.394558.398c-.707361.343-4.322405-.152-3.793295.406 1.931733.023 2.572956-.261 4.393383-.117-.404898.048-.959011.063-1.359876.111.692843.02 1.38004.76 4.134474.327 1.421982-.169.376668-.2.411351-.409 3.102065-.063 4.02962-.276 6.026686-.309-.410544.408 3.53116.04 1.325193.457-1.014664-.239-5.500803-.215-6.59935.174 1.130003.484-2.436646-.068-3.09884.422 2.485847.011 2.363249.487 2.764114.799.690423.022 1.359875-.11 1.771226-.158.292785-.295-.609767-.29-.663-.592 2.775405.08 5.449182-.085 6.979244-.371.927555.146.63477.439-.46297.467 3.300481-.087 6.828416-.047 9.96597.042-2.029328-.479 3.496478-.112 2.112405-.511-1.680083-.108-3.123843-.449-2.197094-.663 1.050153.031-.034683.21.404897.312 1.338906-.262 2.07853.419 3.391624.007-3.014956.154-.585569.583-1.139682.958 2.175318-.211-.094369.267 2.059978.267 2.165639-.208 4.828124-.372 7.237347-.453 3.026248.355 7.665635.006 10.366836-.008 1.415529.19.457324.614 1.990613.688 1.801876-.009-1.334873-.459 1.331646-.264l-.258102.084c.808989-.098 4.891036.289 5.679054-.321l-.8227.46c.498459.042.958204-.064 1.369554-.113.020971.15.600088.286-.208901.384 1.645401.317 3.454536-.05 5.242701-.063l-1.150975-.272c3.060931-.213 5.11123.056 8.073759-.038l-.090336.266 1.763968-.16c-.432322.258 1.18485.424 2.115631.209l-4.579701.652c-1.273573-.158 1.390526-.322.592022-.584-.679938-.23-3.419854-.157-3.86266.1 1.050153.029 1.098547-.03 1.913989-.126.345211.37-1.247763.356-2.034975.604.55008-.015 1.33084.097 1.449405-.02-1.079996.18-2.168058.208-3.967514.217 1.217113-.145-.662194-.229-.201643-.335-.142762.326-1.861562.427-4.085273.335-1.586522-.377-4.17319.243-6.748566.139 1.045314-.33 2.380186-.596 3.944931-.729-1.616365-.165-1.797843.009-3.419048-.157-.783985.246-1.342131.623-3.450503.773l-.11534-.243c-1.910763.124-1.910763.485-4.343376.417-4.169157-.12-8.460912-.12-11.643635-.15l-.117759-.243c-1.771226.521-5.898442.192-8.282661.423-4.054624-.234-8.806124.232-10.88304-.187-7.156689.187-13.414054.37-20.82562.281l1.247763-.354c-1.327614.26-.863836-.204-2.168059-.151 1.498606.282-1.805102.367-2.722171.584-3.301289-.276-7.540617.024-10.465238.273l-.114532-.244c-2.956077.457-6.487238.056-10.172453-.019-.421029-.101-1.087255-.329-2.185803-.302-1.997066.393-3.043186.365-5.9750655.612-2.1398285 0-5.6153358-.098-7.7906533-.251-8.0519818.553-16.2757628.199-24.6455329.532l-.6033138-.286c-8.1148942.612-18.0953833.056-25.0213942.37l.668646-.488c-2.1712847-.152-4.9499161.127-4.3949964.474-2.1785438-.15-5.4354708.237-6.8187372-.165-2.2237117-.09-2.7221715.226-4.5732482.292-4.455489-.185-6.1081496-.143-10.3087627-.052l1.0420875.031c.4605511-.108.5016862-.316-.5428211-.348-1.569584.137-5.76616426-.13-4.20383944.453-2.24226277-.169-4.85635402-.1-7.45592701-.046l-.48716788.009-.03064964.001h-.01532481-.00725913l-.00403284.001c1.39859124 1.735-1.90914964-2.363-1.56877738-1.943l-.00161314-.076-.00161313-.151-.00241971-.301-.01290511-1.199-.00322628-2.355c.00967883-1.542.04758759-3.02.13872993-4.373-.12824453.458-.15324818-.907-.2395511-1.478-.00645255-4.879.25648905-10.009.03790876-13.899.06371898-.773.21858029 1.236.23229197-.752-.0500073-1.175-.16857299-.021-.24035766-1.474-.24035767-7.904.24761679-16.004.18551095-23.187-.24842336-12.775-.12340511-26.105-.16454015-38.344l.09436862.138c-.36134307-4.097.37021532-9.616-.17341241-12.888.08952919-.968.04274817-3.7.22422627-2.982-.25487591-3.263.24035767-9.136-.08388321-13.856-.00806569.432.0104854.683.05081387 1.184.20890146-4.767-.07662409-8.972.11291971-14.003.04113504.51.07017153 1.439.16454014 1.591.18147811-1.945-.39925182-4.608.05645986-5.671-.00403285-1.115-.2290657-.795-.21535402-.112l.04597446-4.163.00564598-1.05.00161314-.526v-.066c-1.20904745 1.498 1.6470146-2.051 1.35584307-1.684h.00725912.01209854.02661679.10646715l.21293431.001 1.70670073.001 6.90826638-.073 13.939938-.266c6.6235474.338.4040912.952 5.6290474.53.4290949.109.3105292-.215.3807008-.098 2.0220693-.158 3.1512664.63 4.5522773.335-.5783102-.347.9348139-.194.975949-.405 4.0505912.224 4.8636131.537 8.0600474.274l-.2403577.183c3.7465146-.516 8.0906971-.24 11.2524489-.835 20.6643066-.108 40.47123-.438 60.620139-.507 19.91581.113 39.41543-.154 59.640963.163 4.736982.479 5.092679.466 10.297471.272-.212934.077-.537175.096-.187931.168.257296-.394 3.663438-.037 4.158672-.412 7.476898.073 14.365-.035 22.058865-.038-1.216307.042-1.82688.364-.379894.338l1.509091-.251.247617.11c.98966-.059 2.067237-.253 1.045314-.379l3.620689-.052.451679-.004.226646-.002.112113-.001c.949332 1.171-2.104339-2.624 2.13257 2.627v.018.035l.000806.07.005646 1.12.008873 2.238-.003227 8.935-.129051 17.783c-.114533 11.822-.254876 23.581-.215354 35.316-.132277 5.57-.011292 13.501.053234 19.561-.422643 17.944-.763821 34.121-.468617 52.356 0 0-.820281-2.382-1.009018-9.911" mask="url(#a)"/><path d="m212.156854 144.3154c-.517011-.197-2.200321-.305-.857383-.567.16696.185 1.031602.391.857383.567"/><path d="m167.208761 142.2905c-.058879.059-.641222-.08-.784792-.111.55492-.016 1.073544-.181 1.516351-.079-.563792.014-.477489.108-.731559.19"/><path d="m155.715955 142.1733c.174219-.175 2.631836-.314 4.082047-.335z"/><path d="m145.006811 141.4512c-.924329-.147-.669453-.229.575084-.224.090336.093-.321015.14-.575084.224"/><path d="m144.2467 141.8496c-.888839.005-1.330839-.098-1.763967-.199.032263.151 2.060785-.094 1.763967.199"/><path d="m120.998791 141.3413c-.55734.014-1.766387.159-2.286625-.035.582343.136 2.718946-.222 2.286625.035"/><path d="m110.195923 141.606c-.348438-.012-.4912-.043-.895292.005-.641222-.08.034683-.208.575084-.224z"/><path d="m63.1809964 4.9365c1.1638795-.11.808989.164 1.0041788.19-1.0533796.018.3903795-.216-1.0041788-.19"/><path d="m109.782592 4.062-.488978.005.162252-.359z"/></g></svg>