<?xml version="1.0" encoding="utf-8"?><svg width="20" height="17" xmlns="http://www.w3.org/2000/svg"><g fill="#FFF" fill-rule="nonzero"><path d="M17.597 2.473A5.005 5.005 0 0 0 14.027 1c-1.334 0-2.588.51-3.53 1.434l-.488.477-.487-.477A5.01 5.01 0 0 0 5.992 1a5.01 5.01 0 0 0-3.53 1.434A4.813 4.813 0 0 0 1 5.894c0 1.307.52 2.536 1.462 3.46l6.24 6.116c.36.353.834.53 1.307.53s.947-.177 1.307-.53l6.2-6.076c1.947-1.909 1.983-5.013.08-6.92zm-.735 6.28l-6.2 6.076a.939.939 0 0 1-1.307 0l-6.24-6.116a3.922 3.922 0 0 1-1.19-2.82c0-1.064.422-2.066 1.19-2.819a4.083 4.083 0 0 1 2.877-1.168c1.087 0 2.108.415 2.877 1.168l.487.478-.746.732a.447.447 0 0 0 0 .64.465.465 0 0 0 .653 0l1.887-1.85a4.083 4.083 0 0 1 2.876-1.168c1.104 0 2.137.427 2.91 1.2 1.55 1.555 1.517 4.088-.074 5.647z" stroke="#FFF"/><path d="M18.999 6.447c-.067-.926-.524-1.797-1.288-2.453a4.642 4.642 0 0 0-1.941-.975c-.323-.077-.658.085-.748.362-.09.277.1.565.423.642.527.126 1.014.37 1.407.708.555.475.887 1.108.935 1.78.02.276.287.489.605.489a.68.68 0 0 0 .038-.001c.335-.018.59-.265.569-.552z"/></g></svg>