<svg height="63" viewBox="0 0 275 63" width="275" xmlns="http://www.w3.org/2000/svg" xmlns:xlink="http://www.w3.org/1999/xlink"><mask id="a" fill="#fff"><path d="m4.62203867.189875c-2.54451471 1.54292436-4.2526101 4.39768965-4.2526101 7.664125v20.04625h17.20842853v-20.04625c0-3.26643535-1.6261873-6.12120064-4.1158456-7.664125z" fill="none"/></mask><mask id="b" fill="#fff"><path d="m.14676923 41.6052857 5.61507692-41.47157141.08815385 35.79342861h.00046154z" fill="none"/></mask><g fill="none" fill-rule="evenodd" transform=""><path d="m3 17 .22253984 36 11.77746016-12.4312786z" fill="#1a1919"/><path d="m44 41-29.8684582-.159505-.1315418-36.840495 29.3168745.50861027z" fill="#161715"/><path d="m17 2.92459827-.2685329-.80227643-.1495626-.05973028c-1.73994-.33517709-2.7856036.74211645-2.7431142 1.65397001l.0339915.72707645-13.8727818 13.79984228 1.58230442 35.7565197 12.85941018-12.9258035-.0824294-36.67395962z" fill="#1a1919"/><path d="m44 2h-27.6012202l-2.3987798 2.81618559 27.6214141.18381441z" fill="#fffffe"/><path d="m13.9190291 5-12.9190291 13.231089 2.11609465 34.768911 10.88390535-12.0716462z" fill="#fffffe"/><path d="m42 4.7944614s-11.1025996-.02424803-18.039982.94765248c-6.9373823.97239537-9.960018-1.11837839-9.960018-1.11837839l2.3243672-2.62373549z" fill="#fffffe"/><path d="m17 2.30103806c1.1357112.35899654 2.7781644.69896194 4.9308395.69896194 1.6528926 0 3.6067856-.19982699 5.8625489-.74480969.4032188-.09775086.8060026-.18079585 1.2066116-.25519031h-1.0891692c-.0439321.01038062-.0874293.01903114-.1313615.03027682-5.1130926 1.23442906-8.6663767.69550173-10.6789908.07352941z" fill="#1c1b19"/><path d="m17.1136951 2.33641536-.0086133.08819346c1.1274763.29587482 2.7562446.57539118 4.8906116.57539118 1.6386735 0 3.5757967-.16500711 5.8113695-.61308677.3979328-.08036984.7962963-.14864865 1.1929371-.20910384l-.005168-.17780939h-1.0813953l-.0030147.00071124c-.0430663.00853485-.0861326.01564722-.1309216.02489331h.0004307c-2.2282515.44665719-4.1563308.61024182-5.786391.61024182-2.0701982 0-3.6597761-.26386913-4.7721792-.54907539l-.0267011-.00711237-.1188631.19345661-.0757967.12375533.1050818.02773827.0086133-.08819346.0374677.06330014.0999139-.16216216-.0378984-.06330014-.0081826.08819346c1.1175711.28662873 2.7127476.5512091 4.7885444.5512091 1.6343669 0 3.5671834-.16429587 5.7993109-.61166429.0426356-.00853486.085702-.01564723.1300603-.02489332l-.00646-.08819346v.0889047h1.0783807v-.0889047l-.0047373-.08819345c-.3975021.06045519-.7967269.12944523-1.1963824.20981508-2.2312661.44736842-4.163652.61166429-5.7980189.61166429-2.1287683 0-3.7515074-.27880512-4.8738157-.57325747l-.0081826.08748222.0374677.06330014z" fill="#1a1919"/><path d="m29.8907858 4.26222206c-.9000446.04906837-1.8263585.13187124-2.7522417.24665616-6.7275104.83065735-10.7268952.07491689-12.0446638-.25629459l-.0938803.09463185c.85009.21905521 2.961965.65278452 6.3481136.65278452 1.6364448 0 3.5708947-.10164162 5.8042111-.37765118.9232993-.11390871 1.8470293-.19627346 2.7449207-.24534183 1.8995678-.10383217 6.9105339-.28082878 12.9925099-.2606757l.1102447-.11434682c-6.1336532-.02278174-11.1971578.15596731-13.1092142.26023759" fill="#1c1b19"/><path d="m30.4039139 4.28582708-.002654-.0493486c-.9262519.04461114-1.8790439.11922622-2.8309513.22226609-2.2886472.24832215-4.2694285.33912357-5.9436708.33912357-3.3763518 0-5.5075274-.36991709-6.4081237-.56849585l-.0300789-.00671141-.1884352.16620608.0951023.02131859c.8775949.19857876 3.0512347.58981445 6.5341895.58981445 1.683089 0 3.672717-.091591 5.9688839-.34070272.9465994-.10264509 1.8940834-.17686538 2.8154696-.22068694 1.8463111-.08843269 6.5607297-.23647848 12.3601989-.23647848.3242324 0 .6515611.00078958.9819862.00157915h.0230015l.1296045-.11804184.0915636-.08330044-.1309315-.00039479c-.3662543-.00118436-.7294123-.00197394-1.0881469-.00197394-5.8074313 0-10.5289273.1480458-12.3796617.23647848l.0057504.0986972c1.8480804-.08843269 6.5686917-.23647848 12.3739113-.23647848.3587346 0 .7214502.00078957 1.0877046.00197394l.0004423-.0493486-.0393679-.03474141-.1132381.10343466.0393679.03434663v-.0493486c-.3304251-.00078958-.6577538-.00157916-.9819862-.00157916-5.8021232 0-10.5169842.1480458-12.3663916.23647849-.9235979.04421634-1.8732936.11883142-2.8229893.22147651-2.2917435.24832214-4.2765058.33991314-5.9551715.33991314-3.4736657 0-5.6380165-.39044611-6.507207-.58665614l-.0132701.04776945.0389256.0351362.0964293-.08527438-.0389256-.0351362-.0132701.04816423c.9090008.20055271 3.049023.57125938 6.4346639.57125938 1.6786657 0 3.6638703-.09119621 5.9569409-.33951836.9496957-.10303987 1.8998337-.17765495 2.8234316-.2218713z" fill="#1a1919"/><path d="m30.3962999 4.26245423c-.9044682.04908207-1.8353348.13190806-2.7657687.24628682-8.0389484.98821493-12.2020989-.267322-12.56605-.38433015l-.0454398.04557621-.0190414.05390263c.030726.01095582 2.2910311.77611026 6.8116412.77611026 1.6444878 0 3.5884454-.10123177 5.8327383-.37731843.9278373-.11394052 1.8561074-.19676652 2.7584118-.24584859 1.8491832-.09991707 6.6333442-.26951316 12.4864222-.26162497l.1107865-.11481699c-5.9058747-.00964112-10.7415341.16126967-12.6037001.26206321" fill="#1c1b19"/><path d="m30.9055373 4.28593997-.0026704-.04936809c-.9319807.04423381-1.8906658.1192733-2.8484607.22235387-2.3032475.24802528-4.2962798.3392575-5.9808772.3392575-4.3581449 0-6.6547163-.60900473-6.919089-.68364928l-.0320452-.00908373-.0796679.06990521-.0240339.05924171-.018693.04699842.0529636.01619273c.0378311.01184834 2.368228.70221169 7.0236809.70221169 1.6934988 0 3.6954326-.09123223 6.0058012-.34044234.9524541-.10268562 1.9057983-.17693523 2.8328832-.22116903 1.8581755-.08807267 6.603978-.23617694 12.441097-.23617694.1317413 0 .2643728 0 .3970042.00039495h.0235888l.2229811-.20181675-.1321864-.00039495c-.1686823-.00039494-.3364744-.00039494-.5033764-.00039494-5.8451303 0-10.598499.14810427-12.4615703.23657188l.0057859.09873618c1.8604009-.08846762 6.6128795-.23657188 12.4557844-.23657188.166902 0 .3346941 0 .5033764.00039494v-.04936809l-.0396114-.03436019-.1143835.10308057.0400565.03475514v-.04936809c-.1330765-.00039495-.2652629-.00039495-.3974493-.00039495-5.8393443 0-10.586037.14810427-12.447328.23657188-.9293103.04383887-1.8848798.11848342-2.8404494.22156398-2.3059179.24842023-4.3029559.33965245-5.992004.33965245-4.6425458 0-6.962261-.68878357-6.987185-.69668246l-.018248.04660347.0525185.01658768.0151325-.03791469.0378311-.03317536-.0391664-.03515007-.0169127.04699842c.2750545.0778041 2.5831978.68838862 6.9529145.68838862 1.6890481 0 3.6869762-.09123223 5.9942294-.34004739.9555695-.10268563 1.9115841-.17733018 2.8408944-.22156398z" fill="#1a1919"/><path d="m30.8819065 3.26234672c-.9292021.04908922-1.88508.13192729-2.8414024.24632272-6.2478844.7481724-10.2172227.21125899-11.9413596-.14507619l-.0991445.09642526c1.0803643.22835256 3.098378.53998149 6.0620439.53998149 1.6899031 0 3.6870209-.10124653 5.9926872-.37693513.9536549-.11439543 1.9073097-.1972335 2.8338444-.24588443 2.0215704-.10694438 7.4576255-.29190557 13.9980529-.25859503l.1133716-.11395713c-6.5928896-.03637862-12.0831851.15033576-14.1180935.25771844" fill="#1c1b19"/><path d="m30.86924 3.28593997-.0026453-.04936809c-.9232102.04423381-1.8724326.1192733-2.821655.22235387-2.2811317.24842022-4.2558493.3392575-5.9245937.3392575-2.859571 0-4.8232665-.26737756-5.8990224-.46958925l-.0290984-.00513428-.1194794.10545023-.0727458.06437599.1000806.01895735c1.0748742.20655608 3.0800127.48775671 6.0229107.48775671 1.678003 0 3.6610974-.09123223 5.9497241-.34004739.9439318-.10308057 1.8883044-.17733018 2.806224-.22156398 1.8411299-.08807267 6.5440352-.23617694 12.327987-.23617694.5087797 0 1.0254953.00118483 1.5497059.0035545h.0233668l.128738-.11769352.0912629-.08293839-.1300607-.00078989c-.5660945-.00276461-1.1242531-.00434439-1.6722714-.00434439-5.7843927 0-10.4868571.14810427-12.3310732.23657188l.0057315.09873618c1.8415708-.08846762 6.5431534-.23657188 12.3253417-.23657188.5480183 0 1.105736.00157978 1.6718306.00434439v-.04936809l-.0392387-.03475513-.1124253.10308056.0392386.03436019.0004409-.04936808c-.5246514-.00236967-1.0418079-.00355451-1.5505876-.00355451-5.7861562 0-10.4899433.14810427-12.3341593.23657188-.9201241.04423381-1.8667011.11848342-2.8137191.22156398-2.2842179.24842023-4.2624626.33965245-5.9360567.33965245-2.934962 0-4.9321647-.28041074-5.9999848-.48538704l-.011463.04818325.0387978.03515008.098317-.08688784-.0387977-.03515007-.011463.04818325c1.083251.20379147 3.0544415.47156398 5.9219484.47156398 1.6735941 0 3.6522797-.09123223 5.9378202-.34004739.947018-.10308057 1.8940359-.17733018 2.81416-.22156398z" fill="#1a1919"/><path d="m30.3381597 2.26257238c-.9267017.04863605-1.8804507.13144877-2.8337563.24624737-5.683475.68178097-9.4754143.29532158-11.4037521-.04819788l-.1006513.09814841c1.1519479.20987988 2.9973702.44122972 5.5424745.44122972 1.6849122 0 3.6766558-.10165372 5.9761176-.37769614.9506453-.11392227 1.9017339-.19629684 2.8262186-.24537105 2.0755459-.1099788 7.7607945-.30277034 14.5421228-.25457246l.1130665-.11392227c-6.8327625-.05126502-12.5729925.14327917-14.6618403.2541343" fill="#1c1b19"/><path d="m30.331605 2.28622187-.0026381-.0493486c-.9206768.04421635-1.867734.11883143-2.8139119.22226609-2.2748719.24792736-4.2437308.33872878-5.9078959.33872878-2.4546984 0-4.2472482-.19778918-5.3833652-.38176076l-.0281391-.00473746-.1956548.17291749.103763.0173707c1.1453501.18989341 2.9792292.39834189 5.5060341.39834189 1.6729586 0 3.650611-.091591 5.9329574-.34070272.9409018-.1022503 1.8826829-.17686538 2.7985233-.22068694 1.8351981-.08843269 6.5208011-.23647848 12.2853634-.23608369.6955638 0 1.4073956.00197394 2.1315382.00671141h.0233028l.1283847-.11764706.0901331-.08290565-.1292641-.00078957c-.7623942-.00552705-1.5111586-.00789578-2.242336-.00789578-5.7693987 0-10.4602778.14844058-12.299433.23687327l.0057158.09830241c1.8365172-.0880379 6.5265169-.23647848 12.2937172-.23647848.7311774 0 1.4795021.00236873 2.2414567.00789577l.0004396-.0493486-.0391309-.03474141-.1121168.10264509.0391309.03474141.0004397-.0493486c-.7241426-.00473746-1.4359744-.00671141-2.1319779-.00671141-5.7667607 0-10.453243.14765101-12.2915188.2360837-.9180388.04421634-1.8620183.11883142-2.8059978.22147651-2.2779496.24871693-4.2507656.33991314-5.9193275.33991314-2.5202098 0-4.3470541-.20805369-5.4858091-.39676273l-.0101125.04855902.0386913.0351362.0998059-.08843268-.0386913-.03513621-.0096728.04855902c1.142712.18476116 2.941857.38333992 5.4031505.38333992 1.6690015 0 3.6418175-.09119621 5.9210861-.33951836.9439795-.10303987 1.8883987-.17765495 2.8064375-.2218713z" fill="#1a1919"/><path d="m20 40v-19.4029219c0-4.7478297 3.8053446-8.5970781 8.4997883-8.5970781h.1833238c4.6940204 0 8.3168879 3.8492484 8.3168879 8.5970781v19.4029219z" fill="#1d5670"/><g transform="translate(19 13)"><path d="m18.336 14.1500625 2.5397143.1614375-7.4168572-10.3000625-6.60299996 9.408 2.26114286.1439375z" fill="#1a1919" mask="url(#a)"/><path d="m18.336 14.1500625-.0132857.2183125 2.997.19075-7.863-10.92-7.0007143 9.974125 2.64771429.1684375 9.21900001.5866875.0265714-.436625-9.21899999-.5866875-1.875-.1194375 6.20571429-8.841875 6.9707143 9.6805625-2.0824286-.1325625z" fill="#1a1919" mask="url(#a)"/><path d="m12.8451429 5.9784375c.2978571 0 .2978571-.310625.5961428-.310625s.2982857.310625.5961429.310625c.2982857 0 .2982857-.310625.5961428-.310625l.0184286.000875-1.1931429-1.65725-1.1648571 1.6594375c.2537143.02975.2687143.3075625.5511429.3075625" fill="#fffffe" mask="url(#a)"/><path d="m12.8451429 5.9784375v.109375c.1898571.002625.3042857-.112.3745714-.188125.0788571-.0791875.1135714-.119875.2215714-.1225.108.002625.1427143.0433125.2215714.1225.0702858.076125.1847143.19075.3745715.188125.1898571.002625.3042857-.112.3745714-.188125.0788571-.0791875.1135714-.119875.2215714-.1225v-.109375l-.0034285.109375.0184285.000875.2207143.0074375-1.4117143-1.9604375-1.3568571 1.9333125.1812857.021c.0848571.0105.1247143.055125.2005714.1334375.0694286.0748125.1834286.177625.3625715.175v-.21875c-.1032858-.0021875-.138-.0385-.21-.11025-.066-.0678125-.1602858-.177625-.3291429-.196875l-.012.1089375.087.0634375 1.0787143-1.5369375 1.1061428 1.5360625.0861429-.06475.0038571-.109375-.0188571-.0004375-.0034286-.0004375c-.1898571-.0021875-.3042857.1124375-.3745714.188125-.0788571.079625-.1135714.1203125-.2215714.1225-.108-.0021875-.1427143-.042875-.2215715-.1225-.0702857-.0756875-.1847142-.1903125-.3745714-.188125-.1902857-.0021875-.3042857.1124375-.3745714.188125-.0788572.079625-.1135714.1203125-.2215714.1225z" fill="#1a1919" mask="url(#a)"/><path d="m11.9382857 13.507375 3.1144286-.0879375-8.30228573-11.5294375-8.42357143 12.002375 3.16028572-.0896875z" fill="#1a1919" mask="url(#a)"/><path d="m11.9382857 13.507375.006.21875 3.5237143-.09975-8.71971429-12.109125-8.84742857 12.606125 3.59228572-.1019375 10.45114284-.2953125-.012-.4375-10.45114284.2953125-2.72871429.0774375 8.00057143-11.3990625 7.8844286 10.94975-2.7051429.0765625z" fill="#1a1919" mask="url(#a)"/><path d="m7.67357143 5.2215625c.45385714 0 .45385714-.3101875.90814286-.3101875.23014285 0 .34371428.079625.45857142.158375l-2.28985714-3.17975-2.20671428 3.1443125c.09942857-.065625.21085714-.1229375.40628571-.1229375.45385714 0 .45385714.3101875.90771429.3101875.45385714 0 .45385714-.3101875.90814285-.3101875.45385715 0 .45385715.3101875.90771429.3101875" fill="#fffffe" mask="url(#a)"/><path d="m7.67357143 5.2215625v.1640625c.26357143.0039375.43285714-.1045625.54342857-.182875.11657143-.0765625.174-.1238125.36471429-.1273125.19285714.0039375.24985714.051625.369.1308125l.76371428.5228125-2.96528571-4.118625-2.82771429 4.0289375.70928572-.46725c.09085714-.0573125.15428571-.0940625.31928571-.0966875.19028571.0035.24771429.05075.36428571.1273125.11057143.0783125.27985715.1868125.54342858.182875.26357142.0039375.43285714-.1045625.54342857-.182875.11657143-.0765625.174-.1238125.36471428-.1273125.19028572.0035.24771429.05075.36428572.1273125.11057143.0783125.27985714.1868125.54342857.182875v-.328125c-.19028572-.0035-.24814286-.0503125-.36471429-.1273125-.11014285-.0783125-.27942857-.1868125-.543-.182875-.26357143-.0039375-.43328571.1045625-.54342857.182875-.11657143.077-.17442857.1238125-.36471428.1273125-.19028572-.0035-.24771429-.0503125-.36428572-.1273125-.11057143-.0783125-.27985714-.1868125-.54342857-.182875-.22628571-.002625-.38571429.0756875-.49371429.1491875l.08742858.1378125.13028571.0958125 2.07814286-2.961 2.15871428 2.99775.12942857-.097125.08957143-.1360625c-.11057143-.07875-.28071428-.1903125-.54814285-.186375-.26357143-.0039375-.43328572.1045625-.54342858.182875-.11657142.077-.17442857.1238125-.36471428.1273125z" fill="#1a1919" mask="url(#a)"/><path d="m-3.81042857 10.439625s11.58985714-4.739875 27.36085717 2.767625c15.771 7.5075-13.60114289 14.1754375-13.60114289 14.1754375l-15.19971428-11.0403125z" fill="#fffffe" mask="url(#a)"/><g fill="#1a1919"><path d="m-3.81042857 10.439625.03985714.1015s.054-.021875.16285714-.0616875c.76328572-.2795625 4.16357143-1.4065625 9.33814286-1.4065625 4.68342853 0 10.82014283.9226875 17.77457143 4.23325 1.662.791 2.8152857 1.5715 3.5477143 2.3261875.7332857.7564375 1.044 1.479625 1.0444286 2.1735 0 .6470625-.2717143 1.281875-.7607143 1.9026875-1.7108572 2.1783125-6.0724286 4.0884375-9.9964286 5.43025-1.962.6724375-3.8164286 1.2070625-5.1792857 1.57325-.6818572.1833125-1.2407143.3241875-1.629.4195625-.3882857.0949375-.60514287.144375-.60557144.144375l.02314285.10675.06214289-.0888125-15.14014289-10.9974375 1.42242858-5.830125-.10414286-.0266875.03985714.1015-.03985714-.1015-.10414286-.02625-1.45714286 5.9749375 15.29785715 11.111625.04671428-.0105c.00257143-.0004375 4.56899996-1.036875 9.14099996-2.755375 2.286-.85925 4.5737143-1.88825 6.297-3.0485.8614286-.5805625 1.5827143-1.1935 2.0922858-1.8396875.5091428-.64575.8078571-1.32825.8082857-2.0400625 0-.7643125-.3471429-1.5456875-1.1061429-2.3270625-.7598571-.7826875-1.9332857-1.572375-3.6094286-2.3708125-6.9848571-3.325-13.1545714-4.2538125-17.86542853-4.2538125-5.949 0-9.57128571 1.4805-9.58071428 1.484l-.051.021-.01328572.05425z" mask="url(#a)"/><path d="m25.7982857 13.4360625s-13.7202857-2.6586875-20.62499999 7.944125c-6.90471428 10.60325 30.04885719 10.3845 30.04885719 10.3845z" mask="url(#a)"/><path d="m-2.71457143 15.31075s11.04214286-2.128875 26.07771433 9.5676875c15.0355714 11.6956875 0 12.4613125 0 12.4613125s-44.895-9.4784375-44.5774286-9.4395c.318.0385 18.49971427-12.5895 18.49971427-12.5895" mask="url(#a)"/><path d="m-2.71457143 15.31075.01971429.107625c.00042857 0 .04628571-.00875.141-.02275.28414285-.042.99128571-.126875 2.06485714-.126875 3.93257143.0004375 12.7825714 1.136625 23.787 9.6963125 5.0061429 3.8898125 6.6471429 6.5664375 6.6402857 8.34225-.0008571.8876875-.3972857 1.5666875-1.0067143 2.1048125-.9141428.8054375-2.3104285 1.2665625-3.4765714 1.518125-.5828571.1264375-1.1082857.20125-1.4871429.245-.3792857.0433125-.6094285.0546875-.6102857.055125l.0055715.1089375.0214285-.10675s-11.1445714-2.352875-22.28914283-4.70925c-5.57228571-1.1781875-11.14499997-2.35725-15.32399997-3.243625-2.0897143-.4431875-3.831-.812875-5.0498572-1.07275-.6094285-.130375-1.0881428-.23275-1.4147143-.3031875-.1628571-.0354375-.288-.0625625-.372-.0809375-.042-.0091875-.0737142-.016625-.0947142-.0214375l-.0222858-.00525-.0021428-.0004375-.0235714.083125.0291428-.081375-.0055714-.00175-.0235714.083125.0291428-.081375-.0355714.09975.048-.0940625-.0124286-.0056875-.0355714.09975.048-.0940625-.0492857.0966875.0685714-.0835625-.0192857-.013125-.0492857.0966875.0685714-.0835625-.0685714.084.1067143-.0004375c-.0042858-.0608125-.0308572-.074375-.0381429-.0835625l-.0685714.084h.1071428-.1071428l.0582857.0914375c.0167143-.0091875.0492857-.0450625.0488571-.0914375h-.1071428l.0582857.0914375-.0582857-.0914375.0141428.1080625.0441429-.016625-.0582857-.0914375.0141428.1080625-.0141428-.10675v.107625l.0141428-.000875-.0141428-.10675v.107625-.0975625l-.012.097125.012.0004375v-.0975625l-.012.097125h.0012857l.0137143.000875c.0394285-.00175.0505714-.0100625.0711428-.0175.0711429-.030625.1902857-.1001875.3711429-.21175 2.6815714-1.659 18.11442856-12.3781875 18.11614284-12.3790625l-.06042857-.0905625.01971429.107625-.01971429-.107625-.06042857-.090125c-.00085714.0004375-.28285714.1964375-.77957143.54075-1.737 1.204875-6.08528571 4.2170625-10.03971427 6.927375-1.977 1.355375-3.8558572 2.6355-5.2598572 3.5765625-.702.4703125-1.2857142.85575-1.7031428 1.1235-.2087143.133875-.3758572.238-.4945714.308-.0591429.035-.1062858.06125-.1388572.077875l-.0355714.016625-.0042857.00175.018.0678125v-.07l-.018.0021875.018.0678125v-.07.095375l.0107143-.0949375-.0107143-.0004375v.095375l.0107143-.0949375-.0124286.1089375.0137143-.1085-.015-.000875-.0231429.002625-.0355714.014875c-.0167143.0091875-.0492857.0450625-.0488572.091875.0042858.0608125.0312858.0748125.0385715.0835625l.0278571.0175.0175714.0056875c.069.018375.8031429.1763125 2.0562858.443625 8.7587142 1.8676875 42.5241428 8.995875 42.5241428 8.995875l.0132857.0030625.0137143-.000875c.0051429-.0004375 1.6817143-.084875 3.3685714-.6365625.8434286-.2765 1.6907143-.6689375 2.3344286-1.2341875.6432857-.564375 1.0821429-1.3125 1.0812857-2.270625-.0068571-1.9166875-1.707-4.608625-6.7247143-8.5159375-11.0408571-8.589875-19.94399996-9.7418125-23.9168571-9.741375-1.44642857 0-2.23971429.15225-2.24528571.1535625l-.02228572.0039375-.01842857.013125z" mask="url(#a)"/></g><path d="m20.4587143 7.4353125c-.1457143 0-.2811429.044625-.3942857.1211875-.2635715-.3443125-.6724286-.5656875-1.131-.5656875-.2875715 0-.5554286.0870625-.7804286.2366875-.3321429-.3115-.7735714-.5018125-1.2578571-.5018125-.555 0-1.0538572.2498125-1.3962858.64575-.15-.08575-.3227142-.1351875-.507-.1351875-.4264285 0-.7937142.2646875-.9552857.6435625h7.0821429c-.1114286-.261625-.3651429-.4445-.66-.4445" fill="#fffffe" mask="url(#a)"/><path d="m16.8274286.8999375c-.1452857 0-.2807143.0441875-.3942857.12075-.264-.3443125-.6724286-.5656875-1.131-.5656875-.2875715 0-.5554286.0870625-.7804286.237125-.3321429-.3119375-.7735714-.50225-1.2578572-.50225-.555 0-1.0534285.2498125-1.3962857.6461875-.15-.0861875-.3231428-.135625-.507-.135625-.4264285 0-.7937143.2646875-.9552857.6435625h7.0821429c-.1118572-.261625-.3651429-.4440625-.66-.4440625" fill="#fffffe" mask="url(#a)"/></g><path d="m20.1045433 39.8949296h.1045434v-19.2573023c0-2.3279397.9283447-4.434391 2.4287506-5.9595929 1.5008241-1.5252019 3.5728729-2.4678935 5.8619536-2.4678935h.1810691c4.5764888 0 8.1087988 3.768665 8.1100533 8.4274864v19.1522319h-16.68637v.1050704h.1045434-.1045434v.1050704h16.8954567v-19.3623727c0-2.3829966-.9049271-4.5424034-2.3978058-6.1062712-1.4924606-1.5638678-3.5741274-2.5317762-5.9213342-2.531356h-.1810691c-2.3467887 0-4.4727818.967068-6.0104051 2.5300952-1.5380415 1.5630272-2.4893858 3.7228543-2.4893858 6.107532v19.3623727h.1045433z" fill="#fffffe"/><path d="m30 12.1182025c-.2321846-.079649-.5267747-.1182025-1.0264764-.1182025l-.1312348.002542c-4.3307484.1177788-8.8422888 3.8443335-8.8422888 8.5944621l.0885605 19.4029959 2.0593769-.2114087v-19.1915872c0-4.4111969 3.2703162-7.981843 7.8520626-8.4788016" fill="#1a1919"/><path d="m22 41.8021169c4.9805579-5.9537787 6.7320655 4.6145583 4.5594328 6.2394211-3.5335498 2.6432781-4.2087072 5.8027094-1.1861905 8.8965906.1204427.1232865 3.1552581 3.1707182 6.5590352 3.1342532 2.2061361-.0238759 3.6090385.2383248 4.4606189.5000914.8787224.2704487 1.1700749.5408974 1.1518389.4970526l2.4398118 1.9304742 14.0154529-.8313151s-5.2252601-4.3966365-11.9021934-6.8176518c-6.6773573-2.4205811-2.83846-4.3935978-2.0666092-7.386332 1.3630376-5.2856879-2.8562719-6.1213441-2.8562719-6.1213441z" fill="#1a1919"/><path d="m65.80121 34.2055724c-.3528426 4.481207-1.0156549 9.2595694-3.9768743 13.0036432-2.730564 3.4469183-5.8594157 5.1454368-10.5123929 4.7289075-.1732058-.0144953-.320688-.1223581-.320688-.2916131-.0480174-15.573164-.4964662-31.1433437-.9547756-46.71053911-.0578782-.28266009-.0767422-.58322625.1762069-.74011753.1826378-.11383143.4583094-.10786274.6731018-.13131117.2658109-.02899078.5316218-.04945486.7978615-.06395025.0514472-.00298434.0960349.00554236.1376214.02046408.5993608-.00298434 1.2180142.07844564 1.5541364.13685353 2.406875.42505597 3.8534008 1.44783358 5.6321903 2.98946086 3.5695833 3.09391289 5.1207186 8.27729359 6.0309066 12.53680639 1.0220859 4.7758044 1.1438444 9.679083.7627059 14.5213956" fill="#1a1919"/><path d="m92.9515925 22.2063386c.2532025 1.8536221.4159454 3.7179959.509364 5.5871007-2.7213989.178911-5.4394163.386207-8.15532.6205978-.2121998-2.2746652.2506663-4.4749274.9430632-6.630892.5554393-1.7245996 1.6278514-5.1974529 3.6513583-5.7260147 2.6279803-.6863993 2.8317259 4.5351378 3.0515345 6.1492082zm3.6771435 14.4208353c-.9147418.0473082-1.8294835.0946164-2.7442253.1419246-.1365349.0051609-.2608113.1131097-.2586978.2627757.049457 2.3034801-.3356307 4.6796429-1.3721126 6.7517429-.4983736 1.001644-1.2943342 2.1086563-2.4724235 2.2424096-1.4625723.1655787-2.3878818-1.1517401-2.7962184-2.3976666-.6175775-1.8983497-.8242821-4.0143173-1.0981974-5.9862099-.2971642-2.1400518-.5064051-4.2908554-.6484352-6.44682 3.692361-.5965136 7.4210749-.788757 11.1603566-.5676986.1475253.0077414.2455938-.1290224.258275-.2632057.2971643-3.3021137.5271179-6.7250783.1348441-10.0297724-.3001232-2.5004544-1.1375092-5.0323042-3.0802787-6.7040046-1.6591319-1.4304285-3.933305-2.1271496-6.0033097-1.2304438-2.1727231.938423-3.5554034 3.1808326-4.4367512 5.3054017-1.1628717 2.8053773-1.5707857 5.8705198-1.9017667 8.8728714-.3770562 3.4625315-.5347265 6.9672104-.1394938 10.4353328.3411259 2.9997712 1.0876296 5.9651363 2.400563 8.6810581 1.0542356 2.1821991 3.3186864 4.1119444 5.8845286 4.2908555 2.5683784.178481 3.950636-1.3358121 5.3096447-3.4681225 1.8138433-2.8419337 1.9639049-6.3466126 2.0619733-9.6276526.0054952-.1367637-.1213174-.270517-.258275-.2627756z" fill="#1a1919"/><path d="m139.702318 51.3946386c-.901804.1521165-1.801461.307258-2.702834.4598066-.211609.0363005-.417208-.0808119-.47129-.2973186-1.400134-5.5639187-2.00663-11.4389847-2.613985-17.117855-.306896-2.8603944-.655427-5.7225174-.798789-8.6001978-.124904-2.490907-.008155-4.9952106-.230494-7.4766103-.495756 1.3725053-.984644 2.7769896-1.638784 4.045347-.057087.1110623-.129197.208728-.206457.29559-.045927.1512521-.106877.2938613-.231353.3893662-.448111.3487443-1.495851.2277426-2.019936.1897135-.7593-.0527222-1.012972-.0872941-1.311714-.7899685-.047644-.113223-.098292-.226446-.145936-.3418298-.414632-.6361234-.70994-1.4343027-1.008681-1.9541779l-1.760683-3.0803583c-.040348 5.5267539-.185426 11.0548042-.453692 16.5750759-.283718 5.8815482.031334 11.7682823.409481 17.6567449.013736.2333605-.217617.3634373-.409481.3794268-.693629.057908-2.342285.5544472-2.951356.0449435-.586751-.4870319-1.156763-1.8660194-1.156334-2.5086251.001288-3.0747403.20517-6.1438627.450258-9.2060707.16654-2.047522.34896-4.0967727.504769-6.144727.095288-4.6443055.159243-9.2899076.19444-13.9342131-.310331-3.0323898-.308184-6.0600258.035625-9.0885262.009443-.1080373.05537-.1879848.112887-.24935.047644-.0743296.126192-.1292126.242512-.1482271l3.129485-.487032c.163964-.02506461.360979.0332755.435664.2005172l3.988794 9.1840311c1.267933-2.3288511 2.453883-4.6983242 3.544117-7.1140373.097863-.2152102.266978-.3007757.496184-.2566965.742561.1447699 1.487697.289972 2.232832.4347419.117179.0211753.252814.1668095.263545.2860827 1.168782 12.7276531 3.195585 25.4527133 4.366513 38.1799343.018027.2018136-.065242.4364705-.295307.4744996" fill="#161715"/><g fill="#1a1919"><path d="m74.4170325 4.02704251c3.9423472.35490775 2.9557018 6.07296139 2.4975256 8.99128279-.4552119 2.9050016-1.8504895 5.7283658-4.3670705 7.2201814.2566125-5.4082613 1.4448215-10.81351496 1.8695449-16.21146419zm7.5535542 48.28034409c-.21215-.8064913-.8981438-1.6417706-1.3021179-2.3722102l-2.4907504-2.9625774c-2.0473952-3.6960248-4.0952138-7.3886122-6.1426089-11.084637.0232899-1.3762343.0516612-2.7498906.0855375-4.1261249.067329-2.6979004.1579479-5.3979492.2663519-8.09542 2.3196754-.3072143 4.3751162-1.7070805 5.7699703-3.6431753 1.9339097-2.6789949 2.3975907-6.1674889 2.3141705-9.4033367-.0745277-2.98620925.3010751-6.32732628-1.8915645-8.52852774-1.9906524-1.99367065-5.0196116-2.59005317-7.6310461-1.66798049-.2151141.07605166-.2875246.2758484-.2591532.45716931-.0258306.04726374-.0440391.10226155-.0491205.1654231-1.5743982 18.11447442-2.4255387 35.46284642-2.6402294 53.55411862-.0025407.2053824.1812379.4073275.3883064.3940078 1.1831276-.0734737 3.8800997.3626418 4.4030641-1.1373376.2976874-.8533254.0647883-2.0091388.0516612-2.9050016-.0152443-1.3839683-.8723131-2.7657883-.8803587-4.1497567-.0050814-1.1979211-.0050814-2.3958421 0-3.5933335 2.0215645 3.6431753 4.8925757 7.2889286 6.9145637 10.9342523.1084039.1946407.3442673.2315923.5331273.1396429.7457007-.3626418 2.8629656-.8116474 2.5601967-1.9751949z"/><path d="m115.868991 51.1374409c-.943535.6739826-1.920091 1.2824752-2.935031 1.8272127-.15932.0845731-.351659.013445-.404903-.1713147-.236091-.8565738-.41935-1.715316-.558445-2.5779617-1.594435 1.3457966-3.611108 2.1407838-5.671945 2.0562107-5.527485-.2272631-6.201085-7.4480712-4.423804-11.3540474.948901-2.0831005 2.616392-3.834848 4.81261-4.3392507 1.564717-.3599778 3.226017-.1036562 4.506765.8643805.13373-1.6437541.264157-3.2862071.328133-4.9204197.06769-1.8037924.043751-3.6093197-.102774-5.407474-.11887-1.461163-.247234-3.0051642-.871718-4.3409855-.681855-1.4650664-2.024928-2.2986536-3.581803-1.7036059-1.707527.6527309-2.587088 2.459993-3.365525 4.0521359-.071405.1461596-.248886.1713147-.375598.1040899-.826316-.4428161-1.468961-1.0417671-2.002228-1.8367543-.15189-.2250945.069754-.4406475.27654-.4154924 1.438004-2.1871906 3.205792-4.6567251 5.915878-4.9477433 2.27175-.2441778 4.376338 1.2360684 5.643878 3.1187957 1.654696 2.45262 1.803284 5.623027 1.639837 8.5241013-.195641 3.5073983-.606322 7.0052551-.899372 10.5048467-.307908 3.6691714.642232 7.1843765 2.1665 10.5690354.068103.1500631.03302.301861-.096995.3942408"/><path d="m175.95143 20.2068757c.253199 1.8532091.416363 3.7171702.509358 5.5867223-2.720946.1789127-5.439355.3862107-8.155228.6201735-.212198-2.2742562.250663-4.4745388.943052-6.6305233.555433-1.7250457 1.627833-5.1979312 3.651317-5.7260678 2.627951-.6864056 2.832117 4.5351799 3.051501 6.1496953zm3.677102 14.4205387c-.914732.0473087-1.829463.0946174-2.744195.141926-.136533.005161-.260808.1131107-.258272.2627781.049034 2.3035015-.335627 4.6801164-1.372097 6.7513754-.498791 1.0020834-1.294742 2.1091059-2.472818 2.2428604-1.462556.1655803-2.387855-1.1513207-2.795765-2.3976887-.617993-1.8983674-.824695-4.0147847-1.098607-5.9866955-.297161-2.1396415-.5064-4.2904651-.648428-6.4464496 3.692319-.5969492 7.421414-.7887643 11.160231-.5677039.147523.0077414.245591-.1290236.258695-.2632082.296738-3.3017141.527112-6.7251406.134419-10.0298653-.300119-2.5000475-1.137073-5.0323508-3.080244-6.7044968-1.659113-1.4300117-3.93326-2.12673917-6.002819-1.2300251-2.173122.9380017-3.555786 3.1808621-4.436701 5.3054508-1.162859 2.8049733-1.571191 5.8705743-1.901746 8.8733837-.377474 3.4621336-.535143 6.9668449-.139915 10.4345694.341122 3.000229 1.08804 5.9656216 2.400536 8.6815686 1.054647 2.1822193 2.472819 4.1115524 5.039055 4.2904651 2.568349.1789127 4.795999-1.3353943 6.154993-3.4677245 1.814245-2.8419601 1.963883-6.3466714 2.062373-9.6277418.005072-.136765-.121316-.2709496-.258695-.2627781z"/><path d="m210.702349 18.0632215c.617948-2.3177266.955678-4.7644299.768434-7.1652844-.009946-.2905192-.046702-.578896-.106378-.8617023-.610164-1.01124693-1.261841-1.12694044-1.955032-.34708052-.394812.31365792-.724327.72244162-1.030922 1.11879902-.656867.8514185-1.144652 1.8035332-1.521301 2.8044962-1.519139 4.0287049-1.770816 8.6701569-1.989195 12.9229644-.241298 4.6491648-.376217 9.7148263.610596 14.2945751.241298 1.1166565.659462 3.2775541 2.172979 3.3469702 1.568004.074558 2.227898-2.047775 2.596331-3.1824283.708759-2.1896067 1.010165-4.4584849.971246-6.7535012-.002594-.1546865.121946-.2420994.259893-.2575252l2.972548-.3367966c.137514-.0154258.259893.1315478.259893.2570967-.047136 3.3499696-.462272 6.9621779-1.630707 10.1240385-.791786 2.1480427-2.373196 4.1294011-4.904662 3.9622883-5.64715-.3706477-6.512017-7.9344319-6.908991-12.1641007-.314379-3.3551116-.280649-6.7303624-.244325-10.0987574.03373-3.1027283.090811-6.217883.529731-9.2979012.60238-4.211672 2.50552-12.16624314 8.412563-11.37438538 5.753961.76957604 5.232014 9.01295238 4.774931 13.04722778-.015567.1306908-.109405.2648095-.259892.2570966-.79957-.0462774-1.596545-.0929833-2.393953-.1392607-.35546.0514194-.708758.1058382-1.064651.1598285-.189406.0278521-.373623-.1109801-.319136-.3166574"/><path d="m271.332733 45.3138334c-3.896007 2.004403-8.812733-.6993609-10.503098-4.0252107-1.033547-2.0285784-.989075-4.3438085-.476792-6.4932641.147528-.6186322.285648-1.2942494 1.118643-1.3179932.880889-.0246071 2.04101.6371956 2.776509 1.0123466.159073.0807287.271109.2922638.203545.4558797-1.042527 2.4870484-1.484254 6.557588 2.108146 7.5647541 1.677964.4692626 3.29478-.4848039 4.186786-1.7332927 1.007035-1.4151266 1.027561-3.1648241.741913-4.7781029-.43574-2.4792777-1.365804-4.9365385-2.202648-7.3238632-.844542-2.4041611-1.769047-4.7837151-2.77651-7.1339132-1.834044-4.2928674-4.690089-8.7653237-4.201324-13.5304756.309166-3.01761293 2.915056-7.17665197 6.931223-5.70497208 3.895152 1.42548754 4.263329 7.00483367 3.862654 10.15886518-.026085.2223277-.182165.3967362-.4413.4023484-.615339.015973-1.234099.0319461-1.84901.0479191-.070985 0-.138548.0056122-.209105.0056122-.262128.0051804-.52725.0133828-.789378.0181316-.350218.0112243-.485772-.2914004-.403242-.5301329.141541-1.5757206.170619-3.17820691-.041051-4.75133731-.120588-.8979449-.212097-1.40433403-1.142589-1.85719182-.88602-.42868235-1.057066-.42868235-1.675399.49041607-.485771.72094615-.609352 1.74192677-.65639 2.56216491-.194565 3.30124265 1.395738 6.49024215 2.673454 9.50224295 1.148148 2.7067858 2.296724 5.41314 3.447438 8.122516 1.051507 2.4762558 2.147059 4.9684846 2.650362 7.597132.677344 3.5404068.662377 9.1840768-3.332837 11.2394209"/><path d="m230.887836 49.8285877c-.032653.5666552-.007535 1.233233-.108008 1.8511306.045213.5333477.11052 1.1384347-.02763 1.6077294-.334491 1.125197-2.244732.6149084-3.036374.4795432-.040189-.0081134-.075355-.020924-.11052-.0333076h-.113451c-.329049-.0106755-.640515-.2873843-.628374-.6409566.13815-4.0131316.691588-8.3153557-.135638-12.2763909-.643445-3.0843636-2.694767-6.2327803-5.814031-6.8126731-.218529 5.2617374-.316908 10.5251829-.273789 15.7916175.002512.3305132-.291371.6640157-.628374.6409566l-2.382882-.1537271c-.329467-.0230591-.641351-.2796979-.628374-.6409567l1.693806-46.7582358c.005023-.19771015.083308-.3437509.19634-.44879776.090426-.2463904.311466-.45135988.585674-.43342505.67861.04611813 1.357221.08967415 2.033319.13323016.352074.02305907.616234.2767088.628375.64095665.311884 7.9148111-.321932 15.8091253-.826809 23.7013043-.08582 1.3429771-.160756 2.6863813-.231087 4.0302124 4.778323.625584 8.146676 4.9764882 9.269879 9.5789071.77699 3.1817242.713776 6.4945434.537948 9.7428827"/><path d="m253.583662 13.075335c2.815646.270718 2.715984 4.6372346 2.388694 6.8656846-.325296 2.2185035-1.321515 4.3747332-3.119016 5.5138245.182979-4.1295302.426951-8.2573306.730322-12.3795091zm5.395293 36.8682418c-.151885-.6158185-.641424-1.2536923-.930044-1.8111292l-1.174017-2.2626141c-1.462637-2.8222132-2.925274-5.6422642-4.387513-8.4644775.016345-1.05087.037075-2.1000103.060595-3.1508804.048236-2.0602243.112817-4.121746.190952-6.1819703 1.65638-.2348241 3.124598-1.3034249 4.121216-2.7815623 1.380915-2.0463857 1.71219-4.7098873 1.652792-7.1809456-.053817-2.2803448-.389877-4.8322726-1.956163-6.5127998-1.421975-1.522248-3.585035-1.97805751-5.450705-1.2740178-.153479.0583817-.205303.2110389-.184972.3494251-.018736.0358939-.031493.0782747-.035081.1262774-1.105449 13.6011996-1.734116 27.2443476-1.886001 40.8957122-.001594.1565494.129561.3109364.277459.3009899.844734-.0562194 2.771396.2767724 3.144929-.8683733.212878-.6521449.046243-1.5347892.037074-2.2185035-.011162-1.0569245-.018338-2.1121191-.023919-3.1690436-.003986-.9150787-.003986-1.8297248 0-2.7439386 1.443901 2.7819948 2.889795 5.5657194 4.333696 8.3498764.077736.1483327.245965.1764424.381106.1063844.532593-.2767724 2.045061-.6201431 1.828596-1.5084094z"/><path d="m241.951729 20.2068757c.252778 1.8532091.415942 3.7171702.508937 5.5867223-2.721375.1789127-5.439369.3862107-8.155249.6201735-.211775-2.2742562.250664-4.4745388.943055-6.6305233.555857-1.7250457 1.62826-5.1979312 3.651326-5.7260678 2.627958-.6864056 2.832124 4.5351799 3.051931 6.1496953zm3.677111 14.4205387c-.914734.0473087-1.829467.0946174-2.744201.141926-.136956.005161-.260809.1131107-.258695.2627781.049456 2.3035015-.335628 4.6801164-1.372101 6.7513754-.498369 1.0020834-1.294323 2.1091059-2.472825 2.2428604-1.462559.1655803-2.38786-1.1513207-2.795771-2.3976887-.617572-1.8983674-.824697-4.0147847-1.098188-5.9866955-.297161-2.1396415-.5064-4.2904651-.648852-6.4464496 3.692752-.5969492 7.421433-.7887643 11.160682-.5677039.147101.0077414.245169-.1290236.258272-.2632082.297162-3.3017141.527114-6.7251406.134421-10.0298653-.299698-2.5000475-1.137077-5.0323508-3.080252-6.7044968-1.658695-1.4300117-3.932848-2.12673917-6.002834-1.2300251-2.173127.9380017-3.555795 3.1808621-4.436713 5.3054508-1.162861 2.8049733-1.570772 5.8705743-1.902172 8.8733837-.377053 3.4621336-.5343 6.9668449-.139493 10.4345694.341546 3.000229 1.088465 5.9656216 2.400965 8.6815686 1.054226 2.1822193 2.472824 4.1115524 5.038644 4.2904651 2.568778.1789127 4.796434-1.3353943 6.155008-3.4677245 1.81425-2.8419601 1.96431-6.3466714 2.062378-9.6277418.005072-.136765-.121739-.2709496-.258273-.2627781z"/><g transform="translate(148 1)"><path d="m49.1619863 47.605937c-1.0026316.6631707-2.0403509 1.2614752-3.1188597 1.7974742-.1692982.0836431-.3736842.013656-.4302631-.1681398-.2508772-.8432595-.445614-1.6877993-.5934211-2.5366065-1.6938596 1.3242076-3.8372807 2.1064417-6.0271929 2.0232253-5.8732457-.2236174-5.7118422-7.3285907-3.8236843-11.171908 1.0083334-2.0496839 2.7802632-3.7733302 5.1144737-4.2696413 1.6622807-.3542031 3.4280702-.1019935 4.7885965.8505142.1425439-1.6178121.2807018-3.2334904.3486842-4.8414873.0719299-1.7748564.0469299-3.5518465-.1092105-5.3207284-.1263158-1.4377233-.2627193-2.956956-.9263158-4.2713483-.7241228-1.4415641-2.1513158-2.261779-3.8061403-1.6767037-1.8144737.6422599-2.7486842 2.420957-3.5758772 3.987559-.0763158.143815-.2649123.1685666-.3995614.1019935-.8776316-.4352858-1.5609649-1.0242019-2.1276316-1.8068627-.1614035-.2214837.0741228-.4340056.2938596-.4088273 1.5285088-2.152104 3.4070176-4.5820228 6.2864035-4.8683726 2.4140351-.2406874 4.6508772 1.2162397 5.9978071 3.0687647 1.7578947 2.4128488 1.9157894 5.5328235 1.7425438 8.3873593-.2083333 3.4511334-.6447368 6.8928782-.9561403 10.3363301-.327193 3.6107381-.1942983 7.069553 1.425 10.3990624.0723684.1480825.0350877.297872-.1030702.3883432"/><path d="m6.64695679 4.00010519c4.08333331.35164262 3.93859651 6.03126841 3.46403511 8.92975961-.47192984 2.8852618-1.91754388 5.6898678-4.52324563 7.1711196.26535087-5.371085.61929824-10.74003622 1.05921052-16.10087921zm7.82324561 47.95142191c-.2197368-.8005844-.9302632-1.6301879-1.3482456-2.3552374l-1.7026316-2.9428732c-2.12105262-3.6704833-4.24166665-7.338406-6.36228069-11.009316.02368421-1.3668827.05350877-2.7312049.0881579-4.0980875.06973684-2.6791413.16359649-5.3612698.27631579-8.040411 2.40219298-.3051268 4.53114035-1.6959075 5.9763158-3.6184197 2.0026316-2.6607909 2.4828947-6.1251536 2.3969298-9.3390135-.0776316-2.96634452-.5657895-6.28475839-2.8368421-8.47100251-2.0618421-1.98012351-5.19868421-2.57245356-7.90394736-1.65664643-.22280702.07553488-.29780702.27397398-.26842106.4540628-.02675438.04694258-.04561403.10156668-.05087719.16472579-1.60307017 17.68967235-2.51491228 35.43482225-2.73464912 53.18978745-.00263158.2039868.1877193.4045597.40219298.3913304 1.2254386-.0729744 4.01885965.3601776 4.56052632-1.1291825.30833333-.8483805.06710526-1.9959133.05394736-2.8856886-.01622807-1.3749909-.02675438-2.7469946-.03508771-4.1215588-.00526316-1.1897811-.00526316-2.3791355 0-3.5693433 2.09429824 3.6188464 4.19078947 7.2393998 6.28464908 10.8608067.1127193.1928914.356579.2295919.5526316.1382673.7719298-.3601777 2.9653509-.8061322 2.6513158-1.9622z"/></g><path d="m24.2639472 27.5426063c.4863056.1729277.9604641.2663086 1.4894942.1742247v.283169c.6672566-.0449612.8352227-.3830348 1.0124038-.6333476.0758151-.1072151.0938264-.1980021.0707887-.3078112-.0163359-.0769528-.0557095-.1495824-.0892189-.2217797-.0745585-.1603904-.0431434-.3216455.0259698-.4656078.1026226-.2144303.2366604-.4124324.3434717-.6247012.0695321-.1383421.1139321-.2900861.1692226-.4340484-.2462943-.1033243-.4641056-.1949759-.6814981-.2866276l.0117283-.0289654c.2860868.062254.5721736.1240756.9055925.1962729-.0833548.2191858-.152468.4223758-.2374981.6186487-.1306868.3013265-.2743585.5961682-.4067208.89663-.0171736.039341-.0025132.0938132-.0025132.151744.0406302-.0164281.0586415-.0181574.0670189-.0285331l.085449-.1136999c.2668189-.3696329.3857774-.8067076.5139509-1.2364328.0640868-.2165919.104717-.4340484.2777095-.5966004.0477509-.0449612.0661811-.1240756.0955019-.182871-.0356038-.0631186-.0649246-.1158616-.0925699-.1647136.2576038-.2723611.2341472-.4911146-.063249-.6951692l.0226189-.041935c.0971773-.1833033.0657622-.2498805-.1239849-.2615531-.054034-.0034585-.108068-.0004323-.1704793-.0004323-.0205245-.0644156-.0389547-.1223463-.0557094-.174657-.1600076-.0324239-.3082868-.0626862-.4582415-.0933809-.0854491-.3194838-.1788566-.3350473-.6220189-.0998657-.142415-.2261029-.142415-.2261029-.3334188-.0077818-.2370792-.1500147-.3790755-.1478531-.5411773.0293977-.1495359.1634167-.3145698.3212132-.4435812.4919792-.1784377.2360463-.2739396.5412636-.389966.823568-.0661811.1603904-.0770717.3484493-.1574943.498464-.2274453.4241051-.3484981.884525-.4050453 1.3535913-.0490075.4107032-.0707887.7090034-.0804226 1.1253268-.0029321.1197524.1017849.2935447.1285924.3488815l.0686944.1145646c.0226188-.1370452.0452377-.2758196.0666-.4059477"/></g><path d="m27.8020968 24.7336722c-.2582165 0-.3364354 0-.7148074 0v.1270648h.7148074.0273295l.0179055-.0228717c.097538-.12554.152197-.2500635.1526682-.3756035-.0004712-.1768743-.1093179-.3283355-.2954412-.4614994l-.0325126.0528589.0513606.0310039.0254447-.0498094c.0414654-.082338.0669101-.1479035.0678525-.2144854.002356-.0584498-.0310991-.1179162-.0791613-.1438374-.0471198-.0279542-.1036636-.0381194-.1762281-.043202l-.0702085-.0020331c-.040523 0-.0815172.0015248-.1248674.0015248v.0635324l.0560725-.0198221c-.0230887-.0757306-.0438214-.1438373-.0626693-.2053367l-.0108376-.0350699-.033455-.0076239c-.1799977-.0381194-.347273-.0736976-.5159619-.109784l-.0113087.0625159.057015-.0172808c-.0278007-.1062262-.0556014-.1890724-.099894-.2520966-.0438214-.0640406-.1130876-.1016518-.1894216-.100127-.1229827.002033-.2685829.0716645-.4942868.1951715l.0268583.056925.0494758-.0345616c-.040523-.0670902-.0711509-.1184244-.1013076-.1570521-.028743-.0365947-.0640829-.0711563-.1163859-.0721728-.0504182.0010165-.0848156.0299873-.1206267.0645489-.0362822.0355782-.076334.0838628-.1295794.1473952l.0433502.0426938.0310991-.0538755c-.1309931-.0864041-.2431382-.1367217-.3533985-.1367217-.1220403-.0005083-.2290023.0660737-.3293675.1814485-.1658617.1905972-.3533985.3766201-.5027682.5829733-.1493698.2088946-.4839204.8299873-.5588409 1.1400254l.1140299.0315121c.061727-.2693774.4019319-.907751.537637-1.0932656.1408882-.1951715.3255978-.3796696.4957003-.5738246.09047-.1026684.1620921-.1412961.2436094-.1418043.0749204-.0005083.1686888.0360864.2916715.1179161l.0419367.027446.0325126-.039136c.0532454-.0635324.092826-.1108005.1215691-.1387547l.0334551-.0279543.0080103-.0035578v-.0040661l-.0009424.0035578.0009424.0005083v-.0040661l-.0009424.0035578.0358111.039136c.0212039.0289708.0485334.0742058.0838732.1326557l.0287431.0477763.047591-.0259212c.2205207-.123507.3637649-.1829733.4405702-.1814485.0471198.0015247.0673813.0132147.0956532.0503176.0278006.0381195.0541877.1082592.0801036.2088946l.009424.0376111.035811.0076239c.1686889.0360864.335493.0716646.5154907.1102923l.0113087-.0625159-.0556013.0198221c.0183767.0614994.0395806.1296061.0621981.2053367l.0136647.0437103h.0424079c.0457062 0 .0867004-.0015248.1248674-.0015248l.0631406.0020331c.0640829.0035578.1074331.0152478.1258098.0269377l.018848.0330369c.0009424.0249047-.0150784.0792884-.0532454.1534943v-.0005083l-.0518318.1011436.045235.0325286c.1729297.1240152.2431382.2409148.2431382.3552732 0 .0838627-.0376958.1814485-.1253387.294282l.045235.0406608v-.0635324c-.2582165 0-.3364354 0-.7148074 0v.1270648h.7148074z" fill="#fffffe"/><path d="m32.2630429 41.9825323c-.0207406-.0667737-.0122558-.1567946.0089562-.3215031.6344751-.1290959.9460561-.6355869 1.2015431-1.1692821.2111774.0959563.4086849.1943857.6118489.2750088.2177767.0860639.4119845.0128601.5614114-.1716332.1739386-.2146651.2092919-.4970933.3403351-.7325325.0197978-.0356126.0108417-.0900208.0108417-.1355259.0004713-.3012237-.1117167-.567824-.2347464-.8299726-.0325251-.0697415-.0758919-.1572893-.1362283-.184988-.1800665-.08458-.354005-.1815256-.5769669-.0944724-.1371711.0534189-.315352-.0093978-.4110418.1676762l-.0476092.0192902c-.1225583.0588598-.2446453.1187088-.3596616.1746009-.1989216-.0712253-.4072707-.166687-.6250475-.2176329-.2286184-.053419-.466193-.0647952-.7098955-.0959563-.0216834-.0667737-.0424241-.1469022-.0725923-.2225791-.1381138-.3452448-.3139379-.4614806-.6717139-.4407065-.104646.0059354-.2078778.035118-.3120524.0385803-.1899654.0069247-.3323216.0959563-.4525231.244837-.0612791.0756769-.1319859.1444291-.2074064.2052674-.1673392.1350313-.2130629.3061699-.1588544.514405.024983.0969455.0683498.1943857.0688212.2913313.0014141.3422771.2158912.5302328.4501662.6944467.1343428.0939778.297911.1043648.4581796.0524297.0575081-.0187956.1169018-.0321503.2045781-.0558921 0 .2740196-.0325251.5351791.0089562.7834784.0414813.2458262.1579117.4787923.2470022.7335217l-.0527944.0291826c.2851838.2136759.570839.5460607.8564942.4486205" fill="#fffffe"/><path d="m30.0972523 46.1104608c.0668531.0184853.1274666.035618.1885257.0527507-.0258498.0685308-.0628419.1248884-.0668531.1839512-.0516997.7367062-.1074106 1.4738632-.1444027 2.2110203-.0258499.5121777-.0022284 1.0266096-.0401119 1.5369838-.0833435 1.1289549-.0053482 2.2502452.1274666 3.3688304.0610592.5117268-.036992.5459922.6270823.5342698.2469108-.0040578.2669668-.0297568.2714236-.2759267.0066853-.3358911.0049026-.6722332.0325352-1.0063209.0436774-.5351715.1270209-1.0676378.1604475-1.6032602.0450144-.7155158.1818405-1.4129971.3712576-2.1208483.0160448.051849.0352094.1027962.0481343.1555469.1221184.4882821.21393.986483.3725947 1.4625918.1555449.4679933.3797257.9125418.5700342 1.3688128.112759.2700655.2228438.5414835.3257976.8156068.1319235.3507695.2544875.705146.3757145 1.0423897h.637333c.0833436-.1352582.0311982-.2452682.0115879-.3602376-.0632876-.3633937-.1608931-.7281399-.1635673-1.0928861-.0053482-.834543-.1091934-1.6596179-.1666871-2.4892014-.0044569-.0667273-.0169361-.1361599-.0049025-.2006329.0615048-.33003.015599-.6537479-.0574937-.9743098-.1328149-.582061-.2317575-1.1690815-.2790004-1.7651192-.014262-.1789917-.0329808-.3620411-.0503626-.5428362-1.1431884-.0018034-1.9891031-.0338145-3.1612611-.4116357z" fill="#1c5670"/><path d="m30 37.2301624c.0873484-.1298952.1389053-.2294021.2049492-.300904.2569321-.2764742.5181251-.5457982.778892-.8145263.1759751-.1805424.2530973-.1555167.3383153.1287035.0566699.1882884.1414617.3003081.2854801.356318.1955752.0756729.2198623.1304911.2181579.4296075-.0004261.1209575.0276959.1972262.0839397.2860078.1435922.2270187.1171747.3479761-.0886267.4498664-.1546705.0762687-.3127498.1400246-.4699769.2067598l-.1163225.0280049c-.2748279-.0423053-.5377253-.1412163-.7776138-.3402301-.0737135-.0613725-.1452966-.1275118-.2164536-.1942469-.0703048-.0661393-.1389053-.1358537-.2407407-.2353606" fill="#fffffe"/><path d="m34.0032948 53.0595665c.3643225-.0215454.6916691-.0405559 1.0190157-.0595665l-.0217506.0773097c.1185407.112796.2300126.2382658.3577974.334586.1343099.1013898.2871079.1698278.4273993.2623459.0744958.0487938.1397476.1178656.2142434.1818678l-.0728645.1032908c-.532346.0177432-1.064692.0354864-1.5970379.0405559-.2175061.0025347-.3088586-.1045581-.3246278-.3605672-.0108753-.1742636-.002175-.3504282-.002175-.5798224" fill="#db3a84"/><path d="m31 53.9205408c-.0656494.0345469-.1122068.0815896-.1584293.0793844-.2351319-.0088205-.4702637-.019111-.7047257-.0529229-.1410121-.0198461-.1557498-.0874699-.1209154-.3947171.0117231-.1051108.0284704-.2080166.0445478-.3109223.03048-.1984611.0897654-.2565294.1865647-.2381533.1657981.0308717.333271.0396922.4990691.0249914.1051729-.0102906.1704873.0690938.196948.2800506.0244511.1918457.0368441.3910418.0569408.6122892" fill="#db3a84"/><path d="m26 28.2693798v.659078c-.6573316.1637669-1.3062087-.0020053-2-.0227268.0428005-.3201809.0824306-.6149613.121004-.905731.6134742.2673745 1.2116248.4117567 1.878996.2693798" fill="#fffffe"/><path d="m19.9747899 41.7268862c-.4735541.04235-.8961938.0570428-1.3504696.0570428-.2165101 0-.4399407-.0034571-.6796836-.0086429-.7933762-.0168535-1.9683638-.0812427-2.9490855-.0812427-.2812655 0-.5467128.0056179-.7834899.0185822l.007909.1080355.1235789-.0004322-.0963915-36.8202289-.2471577.00043214.0963915 36.93517866.1314879-.0073464c.2293623-.0129642.4898665-.0181499.7676718-.0181499.9698467 0 2.1418685.063957 2.9431537.0812427.2407316.0051857.4661394.0086428.6856154.0086428.4602076 0 .8927336-.0146928 1.3756797-.0583392z" fill="#1b1a19"/><path d="m37 41.1035c1.3806877-.0345 2.640313-.013 3.985931.046.9757051.0425 2.0820808-.099 3.014069-.1495" fill="#161715"/><path d="m44.7484278 3s-1.3882599 14.1422432 1.2515722 35.8861195l-2.3714883 2.1138805s-3.0373163-21.5810056-.8159328-35.77352815z" fill="#fffffe"/><path d="m45.3375911 2.63634763-.2351216-.02145474c-.0009462.00600733-.4130003 3.72454313-.4130003 10.27553391 0 6.2274533.3723153 15.0140281 1.8256221 25.6049467l.2346485-.0266039-.1551708-.1617688-2.6762229 2.1107175.1556439.1617688.2337023-.0304658c0-.0004291-.0283849-.1793616-.0785315-.5174883-.3510266-2.366458-1.7565522-12.4918087-1.7560791-22.7566152 0-4.2896611.2455293-8.60378048.9135206-12.38153136l-.2332292-.03389849.1764594.14288858 2.1846911-2.22356941-.1769325-.14245949-.2351216-.02145474.2351216.02145474-.1764595-.14288858-2.23058 2.27034075-.0108809.06178966c-.6741413 3.81164937-.9196707 8.14464894-.9196707 12.44932834 0 11.7705002 1.8388684 23.3298859 1.8398146 23.3354641l.0619736.3896181 3.0982118-2.4445532-.0156117-.1132811c-1.4499953-10.5707511-1.8218374-19.3401622-1.8218374-25.5517389 0-3.26755715.1026587-5.82710781.2053174-7.56923282.0515659-.8710625.1031318-1.53787587.1414514-1.98627996.0383196-.4484041.063866-.67668255.063866-.67711165l.0728546-.65780237-.4849087.49345905z" fill="#1a1919"/><path d="m.14676923 41.6052857h5.70369231v-41.47157141h-5.70369231z" fill="#c9c8cc" mask="url(#b)" transform="translate(10 5)"/><path d="m14.0955 42-.0955-36.15455535.123-.84544465.0975 36.8848498-.1245.1151502z" fill="#171615"/><path d="m35.6182656 46 1.1045808.1792702.2771536.5002644-.9518871.3204654-1.0481129-.4457959z" fill="#fffffe"/><path d="m35.9152431 44.6488299c-.1673416-.1592775-.2945578-.3379993-.3602177-.5510589-.1536625-.4964495-.322828-.990003-.4559718-1.4910033-.1636939-.6172522-.566317-1.0603334-1.1517848-1.3764063-.1696215-.0918431-.2448568-.1307317-.2713032-.2031305-.2763189.0815004-.5526378-.1965113-.8285007-.3752331-.1208326.0575054-.2580801.0405433-.3798245-.0277185-.1860365-.1042544-.3652334-.2246434-.5266475-.358271-.3770886-.3119358-.6009708-.7024761-.6730143-1.1625193-.1003138-.6429021-.0747794-1.2725655.2444008-1.8786476-.0542606-.0318555-.1021376-.0624699-.1527505-.0889472-.3998873-.210991-.4140224-.1845137-.5540057.137351l-.0123113.019858c-.3004854.555196-.5585654 1.1236307-.6762061 1.7375732-.0784272.410812-.1605021.8195554-.0907384 1.2402964.1117131.6668971.3807364 1.2800123.7833595 1.8414139.1171848.1638283.2872622.304489.4600756.4240506.112169.0777771.1659737.1605187.2019955.2755295.097122.3065576.1108011.6201482.1276721.9358073.0232545.4451497.0611002.8902994.0934742 1.3354492l.0022798.0148934c1.1992059.347101 2.0646403.3764742 3.234208.3781291-.0155031-.1464526-.0296382-.2908367-.0455972-.440599.0857227-.0471627.1764611-.016962.2617278.0455079.2243381.1646558.4491322.3288978.6721024.4952084.2074672.154313.3916798.3388268.6493039.4236369.1901402-.1580364.4167582-.2713924.533031-.5101019-.4226859-.2250571-.7578251-.5287187-1.0847569-.8410682" fill="#db3a84"/><path d="m30.9289024 35.3746805c-.2858424-.1363715-.4904069-.3519529-.6757934-.5781501-.4374393-.5332373-.868486-1.0717825-1.2840076-1.618902-.1662087-.2184395-.2999975-.4593354-.4200878-.7010479-.2146101-.4303462-.4073026-.869675-.6104972-1.3049207-.1273962-.2731515-.2666645-.5426282-.3831019-.8194544-.1771674-.4213636-.3652937-.8361945-.6461133-1.2126454-.0374426-.0502206-.0630132-.1077907-.0908668-.1629109-.1470308-.2903-.3862982-.5169054-.6456568-.7251375-.0767117-.0620613-.1958887-.0832928-.2968011-.1204479-.0643831-.023273-.4853841-.0457294-.6031914-.0824762v.1351467c-.5680318.100033-1.1287577-.0012249-1.7282961-.0138822.0114155-.0600198.021461-.112282.0319632-.169852h-.2095873c-.039269.065736-.1063918.1175899-.2292218.1429043-.0534242.0106158-.1004558.0559369-.1456609.0902339-.3305908.2527366-.6424604.5197635-.8940565.8415024-.4625532.5928489-.7237382 1.2563333-.8735087 1.9577895-.1675785.7863822-.2945181 1.5768473-.181277 2.3816029.0223742.1580114.0228309.3188808.0278536.4789337.0178081.5883576.1716881 1.15875.2858424 1.7344504.0086757.0445045.0255706.0886007.0456617.1302471.0187213.0400132.046575.07676.0931499.1510703 0-.0792099.0022831-.1094239 0-.139638-.0753418-.8741662-.048858-1.7475159.0164383-2.6208656.0073058-.0996247.0100455-.197208.1022822-.3082651 0 .124531.0054794.2147649-.0013698.3041821-.0292235.3784924-.0840176.7565765-.0890404 1.1350688-.0068493.4850582-.0442919.9705246.0415522 1.4555828.0552507.3160227.1114146.6283708.2511394.9252035.1041088.2217059.2187197.278051.477165.2074155.2333314-.0641029.4648363-.0714522.705017-.0277643.1821902.0334804.3698599.0506289.5561597.0624696.381732.023273.7643772.0318472 1.1461092.05757.5853833.0391966 1.1698533.0677775 1.7552365-.0028581.1958888-.023273.3296776-.0996247.4118687-.2625356.0748853-.147804.0689492-.2951996.0301368-.4458616-.2292219-.8762077-.372143-1.762623-.4036496-2.6629203-.0022831-.0645111-.0260272-.135555-.0634698-.1906752-.2118704-.313573-.3826452-.6410281-.5091282-.9905312-.1200903-.332763-.2680343-.6569517-.4027364-.9856317-.0242007-.0587949-.0689492-.1249392.040639-.1833258.021461.0432796.0383558.0747185.0529676.1069741.1497704.339704.2817328.6859408.4515944 1.0174789.6310449 1.2306105 1.334692 2.4142667 2.5853666 3.2582189.3479423.2343631.6967978.4593354 1.0812695.6414364.0949764.0449128.1675785.0449128.2543358-.0179652.2831026-.2057822.5721413-.4046234.8584403-.6063227l.1155242-.0894172c.0607301-.0641028.0552506-.1298388-.0305934-.171077" fill="#f1a949"/><path d="m29.8100977 52.4687098c-.2477993-.2143833-.5011568-.423355-.7609987-.6256663-.0880035-.0682696-.1245944-.1377881-.1190363-.23936.0092635-.1860764.0097267-.3725691.0097267-.5586455 0-.9549425-.0231588-1.9090524-.1398793-2.8594158-.076424-.6244175-.1560904-1.2488349-.2246405-1.874085-.1014356-.9262192-.1746174-1.8553524-.2964328-2.7794903-.1421951-1.0777445-.3232971-2.1517426-.4895774-3.2269895-.0509494-.3301087-.0870771-.6635476-.1672066-.9882447-.1333948-.5390804-.238999-1.0789934-.2352936-1.6334761.0009263-.1473625-.0013895-.2955576-.0222325-.441255-.0296433-.2077229-.1079201-.2505996-.3348765-.1956508-.2769794.067437-.5553484.0919975-.8439072.0911649-.4566919-.0016651-.9110678-.0283069-1.3663702-.0512022-.5599801-.0278907-1.1213498-.0316372-1.6817932-.0462069l-.1028251-.0087419c-.2158402-.0732649-.427975.0024977-.6401097.0170675-.0634552.0041627-.1514587.0815905-.1736911.1415346-.0736451.1973159-.1384898.3996272-.1769334.6044361-.0930984.49662-.1509955.999068-.2584524 1.492774-.0801295.366325-.1560904.7305685-.1690593 1.1043864-.0041686.131544-.0148217.264753-.0421491.393383-.0754977.3579994-.1667435.713501-.238999 1.0719167-.0231588.1148928-.3848995 2.2691331-.5104203 2.9818016-.1190363.6743708-.2542838 1.346244-.3529403 2.0226963-.0616025.4221062-.0518758.852538-.1051411 1.2763093-.0898562.7176638-.1292261 1.437409-.1273734 2.1588194 0 .1844112.0477071.36799.0662342.5524013.0180638.1760857.0653078.3588319.0319591.5274246-.0870771.4420876-.2107452.8783472-.3209812 1.3171046-.0504862.198981.0092636.279739.2376095.2809879.5178311.0020813 1.2908724.0253929 1.8091667-.0004163 0 0-.3052332-1.4565578-.3381187-1.705076l.3904576-1.6401366s-.0440017.1715067.1551641-.6081826c.3950894-1.5506367.7549774-3.127499 1.182026-4.6706427.0875403-.3163715.1519218-.6377384.2385358-.9532773.1746175-.6339919.3246866-1.2217769.5141257-1.8940664.0676238-.2385274.1218154-.4832991.1783229-.7255731.0199166-.0828394.0347382-.166095.0518757-.2493507.0565076.0686859.0829086.1394533.1009725.2118857.1829546.7418079.359888 1.485281.5484007 2.2262564.2288091.8991612.548864 1.7766759.735524 2.6870765.1482165.7234918.375636 1.4332463.5521062 2.1525752.1116255.4537434.1899023.9141472.2913379 1.3695557.0528021.2356135.1153309.4699782.1885128.7005964.1607222.5061944.3307079 1.0098912.496525 1.5127554-.0648447.1552718-.1514587.3167878-.2000922.4874619-.0727186.2547623-.1232049.5149363-.1755438.7742776-.0305696.1498602.0560443.2722461.2394622.308046.1579431.0308046.3274656.0528673.4863351.0357999.4534496-.0491208.9050465-.1136439 1.3552539-.1852438.2385358-.0378813.4719767-.0828394.7165338-.0441255.0574339.0091581.1222785-.0183163.2288091-.0362162-.0796663-.1115626-.1199627-.1989811-.1899023-.2597577" fill="#1c5670"/><path d="m22.3069807 53s-.2771237-1.3933023-.3069807-1.6310278l.000841-.0027874zm.2094196-3.8697089c.3507149-1.4550233.6719933-2.932744 1.0521447-4.3798033.0794785-.3026321.137931-.6100426.2165685-.9118783.0748529-.2851113.1442389-.5602676.2148865-.8386095z"/><path d="m21.9296686 54h-.9296686l1.9296686-13h1.0703314l-.4430073 2.0809392c-.0679062.3039232-.1345998.604368-.2065481.9156828-.0755861.3295762-.1317704.6652396-.2081649.9956854-.3654002 1.5800529-.6742118 3.1935851-1.0113177 4.7823339l-.5064673 2.377036.0109135.06435-.0008084.0030436c.0286985.2595739.2950688 1.7809291.2950688 1.7809291"/></g></svg>